<svg xmlns="http://www.w3.org/2000/svg" xmlns:xlink="http://www.w3.org/1999/xlink" width="500" zoomAndPan="magnify" viewBox="0 0 375 374.999991" height="500" preserveAspectRatio="xMidYMid meet" version="1.2"><defs/><g id="f615b1746c"><g style="fill:#ececed;fill-opacity:1;"><g transform="translate(80.798532, 281.155266)"><path style="stroke:none" d="M 2.75 -24.5 C 6.582031 -28 11.789062 -31.664062 18.375 -35.5 C 24.957031 -39.332031 31.957031 -43.207031 39.375 -47.125 C 46.789062 -51.039062 53.5 -54.832031 59.5 -58.5 C 54 -63 47.914062 -67.707031 41.25 -72.625 C 34.582031 -77.539062 28.25 -82.164062 22.25 -86.5 C 16.25 -90.832031 11.414062 -94.332031 7.75 -97 C 5.914062 -98.332031 5 -100.414062 5 -103.25 C 5.164062 -104.25 6.082031 -105.957031 7.75 -108.375 C 9.414062 -110.789062 11.457031 -113.332031 13.875 -116 C 16.289062 -118.664062 18.5 -120.832031 20.5 -122.5 C 24.164062 -125.5 27.164062 -126 29.5 -124 C 35 -119.332031 41.039062 -114.289062 47.625 -108.875 C 54.207031 -103.457031 60.707031 -98.125 67.125 -92.875 C 73.539062 -87.625 79.332031 -82.957031 84.5 -78.875 C 89.664062 -74.789062 93.582031 -71.75 96.25 -69.75 C 98.914062 -68.082031 101.75 -66.125 104.75 -63.875 C 107.75 -61.625 109.082031 -59.832031 108.75 -58.5 C 108.414062 -57 107.539062 -55.664062 106.125 -54.5 C 104.707031 -53.332031 103.082031 -52.164062 101.25 -51 C 100.25 -50.332031 99.207031 -49.539062 98.125 -48.625 C 97.039062 -47.707031 96.082031 -46.832031 95.25 -46 C 92.582031 -43.832031 88.5 -40.832031 83 -37 C 77.5 -33.164062 71.289062 -28.914062 64.375 -24.25 C 57.457031 -19.582031 50.5 -14.832031 43.5 -10 C 36.5 -5.164062 30.25 -0.664062 24.75 3.5 C 23.75 4.164062 22.414062 4.414062 20.75 4.25 C 19.082031 4.082031 17.414062 3.332031 15.75 2 C 13.75 0.164062 11.539062 -2.125 9.125 -4.875 C 6.707031 -7.625 4.625 -10.289062 2.875 -12.875 C 1.125 -15.457031 0.164062 -17.25 0 -18.25 C 0 -20.582031 0.914062 -22.664062 2.75 -24.5 Z M 2.75 -24.5 "/></g></g><g style="fill:#ececed;fill-opacity:1;"><g transform="translate(197.297136, 281.155266)"><path style="stroke:none" d=""/></g></g><g style="fill:#ececed;fill-opacity:1;"><g transform="translate(252.296464, 281.155266)"><path style="stroke:none" d="M 11.5 20.25 C 12.664062 17.414062 13.875 14.375 15.125 11.125 C 16.375 7.875 17.582031 4.664062 18.75 1.5 C 13.914062 0.332031 10.082031 -2.082031 7.25 -5.75 C 5.75 -7.75 5 -10.25 5 -13.25 C 5 -17.582031 5.332031 -21.789062 6 -25.875 C 6.664062 -29.957031 7.332031 -33.582031 8 -36.75 C 8.332031 -37.75 8.875 -38.707031 9.625 -39.625 C 10.375 -40.539062 11.664062 -41 13.5 -41 C 17.332031 -41 21.789062 -40.75 26.875 -40.25 C 31.957031 -39.75 36.5 -38.164062 40.5 -35.5 C 42 -34.5 43.414062 -32.832031 44.75 -30.5 C 46.082031 -28.164062 46.582031 -26.082031 46.25 -24.25 C 45.582031 -20.082031 45.039062 -16.832031 44.625 -14.5 C 44.207031 -12.164062 43.789062 -10.082031 43.375 -8.25 C 42.957031 -6.414062 42.332031 -4.164062 41.5 -1.5 C 41.332031 -1.164062 41.207031 -0.789062 41.125 -0.375 C 41.039062 0.0390625 40.832031 0.414062 40.5 0.75 C 39.5 3.914062 37.875 7.832031 35.625 12.5 C 33.375 17.164062 31.5 20.832031 30 23.5 C 28.332031 26.332031 26.414062 28.039062 24.25 28.625 C 22.082031 29.207031 19.5 28.914062 16.5 27.75 C 12.664062 26.25 11 23.75 11.5 20.25 Z M 51.25 -101.75 C 50.582031 -97.582031 50.039062 -94.332031 49.625 -92 C 49.207031 -89.664062 48.789062 -87.582031 48.375 -85.75 C 47.957031 -83.914062 47.332031 -81.664062 46.5 -79 C 46 -77.5 45.457031 -76.332031 44.875 -75.5 C 44.289062 -74.664062 43.082031 -74.25 41.25 -74.25 C 33.582031 -74.25 27.539062 -74.875 23.125 -76.125 C 18.707031 -77.375 15.082031 -79.75 12.25 -83.25 C 10.75 -85.25 10 -87.75 10 -90.75 C 10 -95.082031 10.332031 -99.289062 11 -103.375 C 11.664062 -107.457031 12.332031 -111.082031 13 -114.25 C 13.332031 -115.25 13.875 -116.207031 14.625 -117.125 C 15.375 -118.039062 16.664062 -118.5 18.5 -118.5 C 22.332031 -118.5 26.789062 -118.25 31.875 -117.75 C 36.957031 -117.25 41.5 -115.664062 45.5 -113 C 47 -112 48.414062 -110.332031 49.75 -108 C 51.082031 -105.664062 51.582031 -103.582031 51.25 -101.75 Z M 51.25 -101.75 "/></g></g><g style="fill:#f46530;fill-opacity:1;"><g transform="translate(69.75, 270.106739)"><path style="stroke:none" d="M -0.410156 -27.960938 C 3.667969 -31.6875 9.144531 -35.550781 16.015625 -39.550781 C 22.65625 -43.417969 29.710938 -47.324219 37.1875 -51.269531 C 44.515625 -55.140625 51.140625 -58.882812 57.054688 -62.5 L 59.5 -58.5 L 56.53125 -54.871094 C 51.09375 -59.320312 45.070312 -63.980469 38.46875 -68.851562 C 31.8125 -73.757812 25.492188 -78.375 19.503906 -82.699219 L 5 -93.203125 C 1.875 -95.476562 0.3125 -98.824219 0.3125 -103.25 L 0.3125 -103.636719 L 0.375 -104.019531 C 0.65625 -105.707031 1.828125 -108.046875 3.890625 -111.035156 C 5.675781 -113.621094 7.84375 -116.328125 10.402344 -119.148438 C 12.964844 -121.976562 15.332031 -124.292969 17.5 -126.101562 C 20 -128.144531 22.40625 -129.359375 24.730469 -129.746094 C 27.667969 -130.238281 30.277344 -129.507812 32.550781 -127.558594 C 38.019531 -122.917969 44.039062 -117.894531 50.601562 -112.492188 L 70.097656 -96.496094 C 76.492188 -91.265625 82.261719 -86.617188 87.40625 -82.550781 C 92.542969 -78.492188 96.425781 -75.476562 99.0625 -73.5 L 96.25 -69.75 L 98.734375 -73.722656 C 101.511719 -71.988281 104.457031 -69.953125 107.5625 -67.625 C 112.222656 -64.128906 114.132812 -60.707031 113.296875 -57.363281 L 108.75 -58.5 L 113.324219 -57.484375 C 112.757812 -54.933594 111.351562 -52.730469 109.105469 -50.882812 C 107.539062 -49.59375 105.761719 -48.3125 103.765625 -47.042969 C 102.96875 -46.511719 102.097656 -45.847656 101.152344 -45.046875 C 100.167969 -44.214844 99.304688 -43.425781 98.5625 -42.683594 L 98.394531 -42.515625 L 98.203125 -42.363281 C 95.449219 -40.121094 91.273438 -37.054688 85.679688 -33.152344 C 80.160156 -29.308594 73.933594 -25.042969 66.996094 -20.363281 C 60.09375 -15.707031 53.148438 -10.964844 46.164062 -6.140625 C 39.21875 -1.347656 33.027344 3.109375 27.582031 7.238281 L 27.46875 7.320312 L 27.351562 7.398438 C 25.417969 8.6875 23.0625 9.191406 20.285156 8.914062 C 17.695312 8.65625 15.210938 7.570312 12.820312 5.660156 L 12.699219 5.5625 L 12.582031 5.457031 C 10.457031 3.507812 8.132812 1.097656 5.605469 -1.78125 C 3.058594 -4.679688 0.855469 -7.5 -1.007812 -10.246094 C -3.140625 -13.394531 -4.34375 -15.804688 -4.625 -17.480469 L -4.6875 -17.863281 L -4.6875 -18.25 C -4.6875 -21.878906 -3.3125 -25.066406 -0.566406 -27.8125 L -0.488281 -27.890625 Z M 5.910156 -21.039062 L 2.75 -24.5 L 6.066406 -21.183594 C 5.148438 -20.265625 4.6875 -19.289062 4.6875 -18.25 L 0 -18.25 L 4.625 -19.019531 C 4.609375 -19.097656 4.597656 -19.15625 4.585938 -19.203125 C 4.589844 -19.183594 4.601562 -19.152344 4.621094 -19.101562 C 4.699219 -18.910156 4.816406 -18.664062 4.976562 -18.367188 C 5.378906 -17.613281 5.972656 -16.660156 6.753906 -15.503906 C 8.394531 -13.082031 10.359375 -10.570312 12.644531 -7.96875 C 14.953125 -5.347656 17.042969 -3.175781 18.917969 -1.457031 L 15.75 2 L 18.679688 -1.660156 C 19.625 -0.90625 20.46875 -0.488281 21.214844 -0.414062 C 21.601562 -0.375 21.910156 -0.378906 22.136719 -0.417969 L 22.148438 -0.398438 L 24.75 3.5 L 21.917969 -0.238281 C 27.472656 -4.445312 33.78125 -8.984375 40.835938 -13.855469 C 47.851562 -18.699219 54.820312 -23.460938 61.753906 -28.136719 C 68.648438 -32.789062 74.839844 -37.027344 80.320312 -40.84375 C 85.722656 -44.613281 89.714844 -47.542969 92.292969 -49.636719 L 95.25 -46 L 91.933594 -49.3125 C 92.859375 -50.238281 93.914062 -51.203125 95.097656 -52.203125 C 96.316406 -53.234375 97.527344 -54.152344 98.730469 -54.953125 C 100.40625 -56.019531 101.875 -57.074219 103.144531 -58.117188 C 103.730469 -58.601562 104.074219 -59.066406 104.171875 -59.515625 L 104.1875 -59.578125 L 104.203125 -59.636719 C 104.070312 -59.105469 104.074219 -58.613281 104.222656 -58.15625 C 104.25 -58.066406 104.277344 -57.996094 104.308594 -57.945312 C 104.296875 -57.960938 104.273438 -57.996094 104.238281 -58.042969 C 103.84375 -58.578125 103.074219 -59.269531 101.9375 -60.125 C 99.042969 -62.292969 96.320312 -64.179688 93.765625 -65.773438 L 93.597656 -65.878906 L 93.4375 -66 C 90.738281 -68.023438 86.789062 -71.089844 81.59375 -75.195312 C 76.40625 -79.296875 70.589844 -83.980469 64.152344 -89.25 L 44.644531 -105.253906 C 38.042969 -110.6875 31.980469 -115.746094 26.449219 -120.441406 C 26.101562 -120.738281 25.121094 -120.222656 23.5 -118.898438 C 21.667969 -117.371094 19.617188 -115.355469 17.347656 -112.851562 C 15.070312 -110.339844 13.15625 -107.957031 11.609375 -105.710938 C 10.875 -104.648438 10.320312 -103.765625 9.941406 -103.0625 C 9.796875 -102.792969 9.6875 -102.566406 9.617188 -102.390625 C 9.601562 -102.351562 9.589844 -102.320312 9.585938 -102.304688 C 9.597656 -102.351562 9.613281 -102.40625 9.625 -102.476562 L 5 -103.25 L 9.6875 -103.25 C 9.6875 -102.007812 9.957031 -101.1875 10.5 -100.796875 L 24.996094 -90.300781 C 31.007812 -85.957031 37.351562 -81.324219 44.03125 -76.398438 C 50.761719 -71.433594 56.90625 -66.675781 62.46875 -62.128906 L 67.582031 -57.945312 L 61.945312 -54.5 C 55.859375 -50.78125 49.066406 -46.941406 41.5625 -42.980469 C 34.203125 -39.09375 27.261719 -35.25 20.734375 -31.449219 C 14.4375 -27.785156 9.496094 -24.3125 5.910156 -21.039062 Z M 5.910156 -21.039062 "/></g></g><g style="fill:#f46530;fill-opacity:1;"><g transform="translate(186.248604, 270.106739)"><path style="stroke:none" d=""/></g></g><g style="fill:#f46530;fill-opacity:1;"><g transform="translate(241.247932, 270.106739)"><path style="stroke:none" d="M 7.164062 18.464844 C 8.316406 15.664062 9.511719 12.65625 10.75 9.441406 C 11.992188 6.210938 13.191406 3.023438 14.351562 -0.121094 L 18.75 1.5 L 17.648438 6.054688 C 11.75 4.632812 7.046875 1.652344 3.539062 -2.882812 C 1.386719 -5.753906 0.3125 -9.207031 0.3125 -13.25 C 0.3125 -17.835938 0.667969 -22.296875 1.375 -26.628906 C 2.050781 -30.785156 2.730469 -34.480469 3.414062 -37.714844 L 3.46875 -37.976562 L 3.554688 -38.230469 C 4.066406 -39.777344 4.882812 -41.230469 5.996094 -42.59375 C 7.683594 -44.65625 10.1875 -45.6875 13.5 -45.6875 C 17.488281 -45.6875 22.097656 -45.429688 27.332031 -44.914062 C 33.195312 -44.339844 38.449219 -42.5 43.101562 -39.398438 C 45.214844 -37.992188 47.121094 -35.800781 48.820312 -32.824219 C 50.71875 -29.503906 51.398438 -26.363281 50.863281 -23.410156 C 50.203125 -19.28125 49.660156 -16.035156 49.238281 -13.675781 C 48.808594 -11.269531 48.378906 -9.117188 47.945312 -7.210938 C 47.5 -5.257812 46.84375 -2.886719 45.972656 -0.101562 L 45.859375 0.257812 L 45.691406 0.597656 L 45.722656 0.542969 C 45.453125 1.890625 44.816406 3.0625 43.8125 4.066406 L 40.5 0.75 L 44.96875 2.160156 C 43.902344 5.542969 42.195312 9.667969 39.847656 14.535156 C 37.554688 19.292969 35.632812 23.046875 34.085938 25.796875 C 31.742188 29.785156 28.867188 32.234375 25.46875 33.152344 C 22.3125 34 18.757812 33.65625 14.800781 32.117188 C 11.960938 31.007812 9.851562 29.417969 8.476562 27.351562 C 6.980469 25.105469 6.441406 22.519531 6.859375 19.585938 L 6.941406 19.007812 Z M 15.835938 22.035156 L 11.5 20.25 L 16.140625 20.914062 C 16.058594 21.480469 16.105469 21.894531 16.273438 22.148438 C 16.5625 22.582031 17.203125 22.992188 18.199219 23.382812 C 20.242188 24.175781 21.855469 24.414062 23.03125 24.097656 C 23.964844 23.847656 24.925781 22.882812 25.914062 21.203125 C 27.367188 18.621094 29.195312 15.042969 31.402344 10.464844 C 33.554688 6 35.097656 2.292969 36.03125 -0.660156 L 36.375 -1.753906 L 37.183594 -2.566406 C 36.847656 -2.230469 36.628906 -1.804688 36.527344 -1.292969 C 36.695312 -2.121094 36.953125 -2.886719 37.308594 -3.597656 L 41.5 -1.5 L 37.027344 -2.898438 C 37.820312 -5.445312 38.414062 -7.578125 38.804688 -9.289062 C 39.203125 -11.050781 39.605469 -13.0625 40.011719 -15.324219 C 40.421875 -17.628906 40.964844 -20.882812 41.636719 -25.089844 C 41.765625 -25.800781 41.449219 -26.828125 40.679688 -28.175781 C 39.710938 -29.867188 38.785156 -31.007812 37.898438 -31.597656 C 34.550781 -33.832031 30.722656 -35.160156 26.414062 -35.585938 C 21.484375 -36.070312 17.179688 -36.3125 13.5 -36.3125 C 13.121094 -36.3125 12.863281 -36.289062 12.722656 -36.238281 C 12.898438 -36.300781 13.074219 -36.441406 13.253906 -36.65625 C 12.867188 -36.183594 12.597656 -35.722656 12.445312 -35.265625 L 8 -36.75 L 12.585938 -35.785156 C 11.933594 -32.6875 11.28125 -29.132812 10.625 -25.121094 C 10 -21.285156 9.6875 -17.328125 9.6875 -13.25 C 9.6875 -11.292969 10.109375 -9.746094 10.960938 -8.617188 C 13.121094 -5.820312 16.085938 -3.964844 19.851562 -3.058594 L 24.96875 -1.820312 L 23.148438 3.121094 C 21.972656 6.308594 20.757812 9.535156 19.5 12.808594 C 18.238281 16.089844 17.015625 19.167969 15.835938 22.035156 Z M 55.878906 -101.007812 C 55.207031 -96.8125 54.660156 -93.535156 54.238281 -91.175781 C 53.808594 -88.769531 53.378906 -86.613281 52.945312 -84.710938 C 52.5 -82.757812 51.84375 -80.386719 50.972656 -77.601562 C 50.3125 -75.613281 49.558594 -74.015625 48.714844 -72.8125 C 47.199219 -70.644531 44.710938 -69.5625 41.25 -69.5625 C 33.148438 -69.5625 26.683594 -70.246094 21.847656 -71.613281 C 16.476562 -73.132812 12.0625 -76.027344 8.605469 -80.300781 L 8.550781 -80.367188 L 8.5 -80.4375 C 6.375 -83.269531 5.3125 -86.707031 5.3125 -90.75 C 5.3125 -95.335938 5.667969 -99.796875 6.375 -104.128906 C 7.050781 -108.28125 7.730469 -111.976562 8.414062 -115.214844 L 8.46875 -115.476562 L 8.554688 -115.730469 C 9.066406 -117.277344 9.882812 -118.730469 10.996094 -120.09375 C 12.683594 -122.15625 15.1875 -123.1875 18.5 -123.1875 C 22.488281 -123.1875 27.097656 -122.929688 32.332031 -122.414062 C 38.195312 -121.835938 43.449219 -120 48.101562 -116.898438 C 50.214844 -115.488281 52.121094 -113.296875 53.820312 -110.324219 C 55.71875 -107.003906 56.398438 -103.863281 55.863281 -100.910156 Z M 46.636719 -102.585938 C 46.765625 -103.300781 46.449219 -104.328125 45.679688 -105.671875 C 44.710938 -107.367188 43.785156 -108.507812 42.898438 -109.097656 C 39.550781 -111.332031 35.722656 -112.660156 31.414062 -113.082031 C 26.484375 -113.570312 22.179688 -113.8125 18.5 -113.8125 C 18.121094 -113.8125 17.863281 -113.785156 17.722656 -113.738281 C 17.898438 -113.800781 18.074219 -113.9375 18.253906 -114.15625 C 17.867188 -113.683594 17.597656 -113.222656 17.445312 -112.765625 L 13 -114.25 L 17.585938 -113.28125 C 16.933594 -110.1875 16.28125 -106.632812 15.625 -102.617188 C 15 -98.785156 14.6875 -94.828125 14.6875 -90.75 C 14.6875 -88.789062 15.125 -87.226562 16 -86.0625 L 12.25 -83.25 L 15.894531 -86.199219 C 18.101562 -83.46875 20.9375 -81.613281 24.402344 -80.632812 C 28.402344 -79.503906 34.015625 -78.9375 41.25 -78.9375 C 41.644531 -78.9375 41.894531 -78.957031 42.003906 -78.992188 C 41.648438 -78.871094 41.324219 -78.601562 41.035156 -78.1875 C 41.355469 -78.648438 41.6875 -79.386719 42.027344 -80.398438 C 42.820312 -82.945312 43.414062 -85.074219 43.804688 -86.789062 C 44.203125 -88.550781 44.605469 -90.5625 45.011719 -92.824219 C 45.421875 -95.128906 45.957031 -98.351562 46.621094 -102.488281 Z M 46.636719 -102.585938 "/></g></g><g style="fill:#ececed;fill-opacity:1;"><g transform="translate(316.298516, 281.155266)"><path style="stroke:none" d=""/></g></g><g style="fill:#f46530;fill-opacity:1;"><g transform="translate(305.249984, 270.106739)"><path style="stroke:none" d=""/></g></g></g></svg>