<svg xmlns="http://www.w3.org/2000/svg" xmlns:xlink="http://www.w3.org/1999/xlink" width="500" zoomAndPan="magnify" viewBox="0 0 375 374.999991" height="500" preserveAspectRatio="xMidYMid meet" version="1.2"><defs><clipPath id="958f1b3c5d"><path d="M 119.515625 213.183594 L 131.949219 213.183594 L 131.949219 235 L 119.515625 235 Z M 119.515625 213.183594 "/></clipPath><clipPath id="fc651e33ee"><path d="M 119.515625 213.183594 L 131.949219 213.183594 L 131.949219 235.183594 L 119.515625 235.183594 Z M 119.515625 213.183594 "/></clipPath><clipPath id="a04a47e574"><path d="M 236.078125 213.183594 L 248.511719 213.183594 L 248.511719 235 L 236.078125 235 Z M 236.078125 213.183594 "/></clipPath><clipPath id="d5ad65d1c1"><path d="M 236.078125 213.183594 L 248.511719 213.183594 L 248.511719 235.183594 L 236.078125 235.183594 Z M 236.078125 213.183594 "/></clipPath><clipPath id="9e03f3e8d1"><path d="M 28.636719 153.398438 L 64.984375 153.398438 L 64.984375 182 L 28.636719 182 Z M 28.636719 153.398438 "/></clipPath><clipPath id="1325d9234c"><path d="M 26 153.398438 L 62.21875 153.398438 L 62.21875 182 L 26 182 Z M 26 153.398438 "/></clipPath><clipPath id="1933571e23"><path d="M 159.566406 136.890625 L 168.175781 136.890625 L 168.175781 145.5 L 159.566406 145.5 Z M 159.566406 136.890625 "/></clipPath><clipPath id="8dfd8db11a"><path d="M 239.554688 176.917969 L 248.164062 176.917969 L 248.164062 185.527344 L 239.554688 185.527344 Z M 239.554688 176.917969 "/></clipPath></defs><g id="9ca2f82d8e"><rect x="0" width="375" y="0" height="374.999991" style="fill:#ffffff;fill-opacity:1;stroke:none;"/><rect x="0" width="375" y="0" height="374.999991" style="fill:#ececed;fill-opacity:1;stroke:none;"/><path style=" stroke:none;fill-rule:nonzero;fill:#f46530;fill-opacity:1;" d="M 18.394531 210.90625 L 345.015625 210.90625 C 346.953125 210.90625 348.808594 211.675781 350.175781 213.042969 C 351.546875 214.414062 352.3125 216.269531 352.3125 218.203125 L 352.3125 232.800781 C 352.3125 234.734375 351.546875 236.589844 350.175781 237.960938 C 348.808594 239.328125 346.953125 240.097656 345.015625 240.097656 L 18.394531 240.097656 C 14.363281 240.097656 11.097656 236.828125 11.097656 232.800781 L 11.097656 218.203125 C 11.097656 214.171875 14.363281 210.90625 18.394531 210.90625 Z M 18.394531 210.90625 "/><g style="fill:#ffffff;fill-opacity:1;"><g transform="translate(18.899249, 230.56759)"><path style="stroke:none" d="M 8.625 -13.375 C 8.738281 -13.375 8.847656 -13.332031 8.953125 -13.25 C 9.066406 -13.175781 9.144531 -13.085938 9.1875 -12.984375 L 12 -6 C 12.03125 -5.894531 12.0625 -5.757812 12.09375 -5.59375 C 12.132812 -5.4375 12.15625 -5.300781 12.15625 -5.1875 L 12.15625 -0.421875 C 12.15625 -0.304688 12.109375 -0.207031 12.015625 -0.125 C 11.929688 -0.0390625 11.832031 0 11.71875 0 L 9.890625 0 C 9.773438 0 9.671875 -0.0390625 9.578125 -0.125 C 9.492188 -0.207031 9.453125 -0.304688 9.453125 -0.421875 L 9.453125 -2.671875 L 4.109375 -2.671875 L 4.109375 -0.421875 C 4.109375 -0.304688 4.066406 -0.207031 3.984375 -0.125 C 3.898438 -0.0390625 3.800781 0 3.6875 0 L 1.875 0 C 1.757812 0 1.65625 -0.0390625 1.5625 -0.125 C 1.476562 -0.207031 1.4375 -0.304688 1.4375 -0.421875 L 1.4375 -5.1875 C 1.4375 -5.300781 1.453125 -5.4375 1.484375 -5.59375 C 1.523438 -5.757812 1.5625 -5.894531 1.59375 -6 L 4.390625 -12.984375 C 4.441406 -13.085938 4.519531 -13.175781 4.625 -13.25 C 4.738281 -13.332031 4.851562 -13.375 4.96875 -13.375 Z M 4.21875 -5.34375 L 9.359375 -5.34375 L 7.21875 -10.703125 L 6.359375 -10.703125 Z M 4.21875 -5.34375 "/></g></g><g style="fill:#ffffff;fill-opacity:1;"><g transform="translate(30.532533, 230.56759)"><path style="stroke:none" d="M 11.5625 0 L 2.4375 0 C 2.320312 0 2.222656 -0.0390625 2.140625 -0.125 C 2.054688 -0.207031 2.015625 -0.304688 2.015625 -0.421875 L 2.015625 -12.953125 C 2.015625 -13.066406 2.054688 -13.164062 2.140625 -13.25 C 2.222656 -13.332031 2.320312 -13.375 2.4375 -13.375 L 4.25 -13.375 C 4.363281 -13.375 4.460938 -13.332031 4.546875 -13.25 C 4.640625 -13.164062 4.6875 -13.066406 4.6875 -12.953125 L 4.6875 -2.671875 L 11.5625 -2.671875 C 11.675781 -2.671875 11.769531 -2.628906 11.84375 -2.546875 C 11.925781 -2.460938 11.96875 -2.363281 11.96875 -2.25 L 11.96875 -0.421875 C 11.96875 -0.304688 11.925781 -0.207031 11.84375 -0.125 C 11.769531 -0.0390625 11.675781 0 11.5625 0 Z M 11.5625 0 "/></g></g><g style="fill:#ffffff;fill-opacity:1;"><g transform="translate(42.165817, 230.56759)"><path style="stroke:none" d="M 11.5625 0 L 2.4375 0 C 2.320312 0 2.222656 -0.0390625 2.140625 -0.125 C 2.054688 -0.207031 2.015625 -0.304688 2.015625 -0.421875 L 2.015625 -12.953125 C 2.015625 -13.066406 2.054688 -13.164062 2.140625 -13.25 C 2.222656 -13.332031 2.320312 -13.375 2.4375 -13.375 L 4.25 -13.375 C 4.363281 -13.375 4.460938 -13.332031 4.546875 -13.25 C 4.640625 -13.164062 4.6875 -13.066406 4.6875 -12.953125 L 4.6875 -2.671875 L 11.5625 -2.671875 C 11.675781 -2.671875 11.769531 -2.628906 11.84375 -2.546875 C 11.925781 -2.460938 11.96875 -2.363281 11.96875 -2.25 L 11.96875 -0.421875 C 11.96875 -0.304688 11.925781 -0.207031 11.84375 -0.125 C 11.769531 -0.0390625 11.675781 0 11.5625 0 Z M 11.5625 0 "/></g></g><g style="fill:#ffffff;fill-opacity:1;"><g transform="translate(53.799101, 230.56759)"><path style="stroke:none" d="M 8.703125 -13.359375 C 9.179688 -13.359375 9.628906 -13.265625 10.046875 -13.078125 C 10.460938 -12.898438 10.828125 -12.65625 11.140625 -12.34375 C 11.453125 -12.03125 11.695312 -11.664062 11.875 -11.25 C 12.0625 -10.832031 12.15625 -10.390625 12.15625 -9.921875 L 12.15625 -3.4375 C 12.15625 -2.96875 12.0625 -2.523438 11.875 -2.109375 C 11.695312 -1.691406 11.453125 -1.328125 11.140625 -1.015625 C 10.828125 -0.703125 10.460938 -0.453125 10.046875 -0.265625 C 9.628906 -0.0859375 9.179688 0 8.703125 0 L 4.890625 0 C 4.410156 0 3.960938 -0.0859375 3.546875 -0.265625 C 3.128906 -0.453125 2.765625 -0.703125 2.453125 -1.015625 C 2.140625 -1.328125 1.890625 -1.691406 1.703125 -2.109375 C 1.523438 -2.523438 1.4375 -2.96875 1.4375 -3.4375 L 1.4375 -9.921875 C 1.4375 -10.390625 1.523438 -10.832031 1.703125 -11.25 C 1.890625 -11.664062 2.140625 -12.03125 2.453125 -12.34375 C 2.765625 -12.65625 3.128906 -12.898438 3.546875 -13.078125 C 3.960938 -13.265625 4.410156 -13.359375 4.890625 -13.359375 Z M 9.484375 -9.921875 C 9.484375 -10.140625 9.40625 -10.320312 9.25 -10.46875 C 9.101562 -10.613281 8.921875 -10.6875 8.703125 -10.6875 L 4.890625 -10.6875 C 4.671875 -10.6875 4.484375 -10.613281 4.328125 -10.46875 C 4.179688 -10.320312 4.109375 -10.140625 4.109375 -9.921875 L 4.109375 -3.4375 C 4.109375 -3.207031 4.179688 -3.019531 4.328125 -2.875 C 4.484375 -2.738281 4.671875 -2.671875 4.890625 -2.671875 L 8.703125 -2.671875 C 8.921875 -2.671875 9.101562 -2.738281 9.25 -2.875 C 9.40625 -3.019531 9.484375 -3.207031 9.484375 -3.4375 Z M 9.484375 -9.921875 "/></g></g><g style="fill:#ffffff;fill-opacity:1;"><g transform="translate(65.432386, 230.56759)"><path style="stroke:none" d="M 9.90625 -9.359375 C 9.789062 -9.359375 9.691406 -9.398438 9.609375 -9.484375 C 9.523438 -9.566406 9.484375 -9.664062 9.484375 -9.78125 L 9.484375 -9.921875 C 9.484375 -10.140625 9.40625 -10.320312 9.25 -10.46875 C 9.101562 -10.625 8.921875 -10.703125 8.703125 -10.703125 L 4.890625 -10.703125 C 4.671875 -10.703125 4.488281 -10.625 4.34375 -10.46875 C 4.207031 -10.320312 4.140625 -10.140625 4.140625 -9.921875 L 4.140625 -3.453125 C 4.140625 -3.234375 4.207031 -3.046875 4.34375 -2.890625 C 4.488281 -2.742188 4.671875 -2.671875 4.890625 -2.671875 L 8.703125 -2.671875 C 8.921875 -2.671875 9.101562 -2.742188 9.25 -2.890625 C 9.40625 -3.046875 9.484375 -3.234375 9.484375 -3.453125 L 9.484375 -3.59375 C 9.484375 -3.707031 9.523438 -3.804688 9.609375 -3.890625 C 9.691406 -3.972656 9.789062 -4.015625 9.90625 -4.015625 L 11.71875 -4.015625 C 11.832031 -4.015625 11.929688 -3.972656 12.015625 -3.890625 C 12.109375 -3.804688 12.15625 -3.707031 12.15625 -3.59375 L 12.15625 -3.453125 C 12.15625 -2.972656 12.0625 -2.523438 11.875 -2.109375 C 11.695312 -1.691406 11.453125 -1.328125 11.140625 -1.015625 C 10.828125 -0.703125 10.460938 -0.453125 10.046875 -0.265625 C 9.628906 -0.0859375 9.179688 0 8.703125 0 L 4.890625 0 C 4.421875 0 3.972656 -0.0859375 3.546875 -0.265625 C 3.128906 -0.453125 2.765625 -0.703125 2.453125 -1.015625 C 2.140625 -1.328125 1.890625 -1.691406 1.703125 -2.109375 C 1.523438 -2.523438 1.4375 -2.972656 1.4375 -3.453125 L 1.4375 -9.921875 C 1.4375 -10.398438 1.523438 -10.847656 1.703125 -11.265625 C 1.890625 -11.679688 2.140625 -12.046875 2.453125 -12.359375 C 2.765625 -12.671875 3.128906 -12.914062 3.546875 -13.09375 C 3.972656 -13.28125 4.421875 -13.375 4.890625 -13.375 L 8.703125 -13.375 C 9.179688 -13.375 9.628906 -13.28125 10.046875 -13.09375 C 10.460938 -12.914062 10.828125 -12.671875 11.140625 -12.359375 C 11.453125 -12.046875 11.695312 -11.679688 11.875 -11.265625 C 12.0625 -10.847656 12.15625 -10.398438 12.15625 -9.921875 L 12.15625 -9.78125 C 12.15625 -9.664062 12.109375 -9.566406 12.015625 -9.484375 C 11.929688 -9.398438 11.832031 -9.359375 11.71875 -9.359375 Z M 9.90625 -9.359375 "/></g></g><g style="fill:#ffffff;fill-opacity:1;"><g transform="translate(77.06567, 230.56759)"><path style="stroke:none" d="M 8.625 -13.375 C 8.738281 -13.375 8.847656 -13.332031 8.953125 -13.25 C 9.066406 -13.175781 9.144531 -13.085938 9.1875 -12.984375 L 12 -6 C 12.03125 -5.894531 12.0625 -5.757812 12.09375 -5.59375 C 12.132812 -5.4375 12.15625 -5.300781 12.15625 -5.1875 L 12.15625 -0.421875 C 12.15625 -0.304688 12.109375 -0.207031 12.015625 -0.125 C 11.929688 -0.0390625 11.832031 0 11.71875 0 L 9.890625 0 C 9.773438 0 9.671875 -0.0390625 9.578125 -0.125 C 9.492188 -0.207031 9.453125 -0.304688 9.453125 -0.421875 L 9.453125 -2.671875 L 4.109375 -2.671875 L 4.109375 -0.421875 C 4.109375 -0.304688 4.066406 -0.207031 3.984375 -0.125 C 3.898438 -0.0390625 3.800781 0 3.6875 0 L 1.875 0 C 1.757812 0 1.65625 -0.0390625 1.5625 -0.125 C 1.476562 -0.207031 1.4375 -0.304688 1.4375 -0.421875 L 1.4375 -5.1875 C 1.4375 -5.300781 1.453125 -5.4375 1.484375 -5.59375 C 1.523438 -5.757812 1.5625 -5.894531 1.59375 -6 L 4.390625 -12.984375 C 4.441406 -13.085938 4.519531 -13.175781 4.625 -13.25 C 4.738281 -13.332031 4.851562 -13.375 4.96875 -13.375 Z M 4.21875 -5.34375 L 9.359375 -5.34375 L 7.21875 -10.703125 L 6.359375 -10.703125 Z M 4.21875 -5.34375 "/></g></g><g style="fill:#ffffff;fill-opacity:1;"><g transform="translate(88.698954, 230.56759)"><path style="stroke:none" d="M 11.71875 -13.375 C 11.832031 -13.375 11.929688 -13.332031 12.015625 -13.25 C 12.109375 -13.164062 12.15625 -13.066406 12.15625 -12.953125 L 12.15625 -11.109375 C 12.15625 -10.992188 12.109375 -10.894531 12.015625 -10.8125 C 11.929688 -10.738281 11.832031 -10.703125 11.71875 -10.703125 L 8.125 -10.703125 L 8.125 -0.421875 C 8.125 -0.304688 8.082031 -0.207031 8 -0.125 C 7.914062 -0.0390625 7.816406 0 7.703125 0 L 5.875 0 C 5.75 0 5.644531 -0.0390625 5.5625 -0.125 C 5.488281 -0.207031 5.453125 -0.304688 5.453125 -0.421875 L 5.453125 -10.703125 L 1.875 -10.703125 C 1.757812 -10.703125 1.65625 -10.738281 1.5625 -10.8125 C 1.476562 -10.894531 1.4375 -10.992188 1.4375 -11.109375 L 1.4375 -12.953125 C 1.4375 -13.066406 1.476562 -13.164062 1.5625 -13.25 C 1.65625 -13.332031 1.757812 -13.375 1.875 -13.375 Z M 11.71875 -13.375 "/></g></g><g style="fill:#ffffff;fill-opacity:1;"><g transform="translate(100.332238, 230.56759)"><path style="stroke:none" d="M 11.9375 -11.109375 C 11.9375 -10.992188 11.894531 -10.894531 11.8125 -10.8125 C 11.738281 -10.738281 11.644531 -10.703125 11.53125 -10.703125 L 4.3125 -10.703125 L 4.3125 -8.015625 L 10.84375 -8.015625 C 10.957031 -8.015625 11.054688 -7.972656 11.140625 -7.890625 C 11.222656 -7.816406 11.265625 -7.722656 11.265625 -7.609375 L 11.265625 -5.765625 C 11.265625 -5.648438 11.222656 -5.550781 11.140625 -5.46875 C 11.054688 -5.382812 10.957031 -5.34375 10.84375 -5.34375 L 4.3125 -5.34375 L 4.3125 -2.671875 L 11.53125 -2.671875 C 11.644531 -2.671875 11.738281 -2.628906 11.8125 -2.546875 C 11.894531 -2.460938 11.9375 -2.363281 11.9375 -2.25 L 11.9375 -0.421875 C 11.9375 -0.304688 11.894531 -0.207031 11.8125 -0.125 C 11.738281 -0.0390625 11.644531 0 11.53125 0 L 2.046875 0 C 1.929688 0 1.832031 -0.0390625 1.75 -0.125 C 1.675781 -0.207031 1.640625 -0.304688 1.640625 -0.421875 L 1.640625 -12.953125 C 1.640625 -13.066406 1.675781 -13.164062 1.75 -13.25 C 1.832031 -13.332031 1.929688 -13.375 2.046875 -13.375 L 11.53125 -13.375 C 11.644531 -13.375 11.738281 -13.332031 11.8125 -13.25 C 11.894531 -13.164062 11.9375 -13.066406 11.9375 -12.953125 Z M 11.9375 -11.109375 "/></g></g><g style="fill:#ffffff;fill-opacity:1;"><g transform="translate(111.946558, 230.56759)"><path style="stroke:none" d=""/></g></g><g style="fill:#ffffff;fill-opacity:1;"><g transform="translate(111.946558, 230.56759)"><path style="stroke:none" d=""/></g></g><g style="fill:#ffffff;fill-opacity:1;"><g transform="translate(123.560347, 230.56759)"><path style="stroke:none" d=""/></g></g><g style="fill:#ffffff;fill-opacity:1;"><g transform="translate(135.182002, 230.56759)"><path style="stroke:none" d=""/></g></g><g style="fill:#ffffff;fill-opacity:1;"><g transform="translate(135.182002, 230.56759)"><path style="stroke:none" d="M 8.703125 -13.359375 C 9.179688 -13.359375 9.628906 -13.265625 10.046875 -13.078125 C 10.460938 -12.898438 10.828125 -12.65625 11.140625 -12.34375 C 11.453125 -12.03125 11.695312 -11.664062 11.875 -11.25 C 12.0625 -10.832031 12.15625 -10.390625 12.15625 -9.921875 L 12.15625 -3.4375 C 12.15625 -2.96875 12.0625 -2.523438 11.875 -2.109375 C 11.695312 -1.691406 11.453125 -1.328125 11.140625 -1.015625 C 10.828125 -0.703125 10.460938 -0.453125 10.046875 -0.265625 C 9.628906 -0.0859375 9.179688 0 8.703125 0 L 4.890625 0 C 4.410156 0 3.960938 -0.0859375 3.546875 -0.265625 C 3.128906 -0.453125 2.765625 -0.703125 2.453125 -1.015625 C 2.140625 -1.328125 1.890625 -1.691406 1.703125 -2.109375 C 1.523438 -2.523438 1.4375 -2.96875 1.4375 -3.4375 L 1.4375 -9.921875 C 1.4375 -10.390625 1.523438 -10.832031 1.703125 -11.25 C 1.890625 -11.664062 2.140625 -12.03125 2.453125 -12.34375 C 2.765625 -12.65625 3.128906 -12.898438 3.546875 -13.078125 C 3.960938 -13.265625 4.410156 -13.359375 4.890625 -13.359375 Z M 9.484375 -9.921875 C 9.484375 -10.140625 9.40625 -10.320312 9.25 -10.46875 C 9.101562 -10.613281 8.921875 -10.6875 8.703125 -10.6875 L 4.890625 -10.6875 C 4.671875 -10.6875 4.484375 -10.613281 4.328125 -10.46875 C 4.179688 -10.320312 4.109375 -10.140625 4.109375 -9.921875 L 4.109375 -3.4375 C 4.109375 -3.207031 4.179688 -3.019531 4.328125 -2.875 C 4.484375 -2.738281 4.671875 -2.671875 4.890625 -2.671875 L 8.703125 -2.671875 C 8.921875 -2.671875 9.101562 -2.738281 9.25 -2.875 C 9.40625 -3.019531 9.484375 -3.207031 9.484375 -3.4375 Z M 9.484375 -9.921875 "/></g></g><g style="fill:#ffffff;fill-opacity:1;"><g transform="translate(146.815286, 230.56759)"><path style="stroke:none" d="M 8.703125 -13.375 C 9.179688 -13.375 9.628906 -13.28125 10.046875 -13.09375 C 10.460938 -12.914062 10.828125 -12.671875 11.140625 -12.359375 C 11.453125 -12.046875 11.695312 -11.679688 11.875 -11.265625 C 12.0625 -10.847656 12.15625 -10.398438 12.15625 -9.921875 L 12.15625 -8.796875 C 12.15625 -8.328125 12.0625 -7.878906 11.875 -7.453125 C 11.695312 -7.035156 11.453125 -6.671875 11.140625 -6.359375 C 10.828125 -6.046875 10.460938 -5.796875 10.046875 -5.609375 C 9.628906 -5.429688 9.179688 -5.34375 8.703125 -5.34375 L 4.109375 -5.34375 L 4.109375 -0.421875 C 4.109375 -0.304688 4.066406 -0.207031 3.984375 -0.125 C 3.910156 -0.0390625 3.816406 0 3.703125 0 L 1.875 0 C 1.757812 0 1.65625 -0.0390625 1.5625 -0.125 C 1.476562 -0.207031 1.4375 -0.304688 1.4375 -0.421875 L 1.4375 -12.953125 C 1.4375 -13.066406 1.476562 -13.164062 1.5625 -13.25 C 1.65625 -13.332031 1.757812 -13.375 1.875 -13.375 Z M 9.484375 -9.921875 C 9.484375 -10.140625 9.40625 -10.320312 9.25 -10.46875 C 9.101562 -10.625 8.921875 -10.703125 8.703125 -10.703125 L 4.109375 -10.703125 L 4.109375 -8.015625 L 8.703125 -8.015625 C 8.921875 -8.015625 9.101562 -8.085938 9.25 -8.234375 C 9.40625 -8.390625 9.484375 -8.578125 9.484375 -8.796875 Z M 9.484375 -9.921875 "/></g></g><g style="fill:#ffffff;fill-opacity:1;"><g transform="translate(158.44857, 230.56759)"><path style="stroke:none" d="M 11.71875 -13.375 C 11.832031 -13.375 11.929688 -13.332031 12.015625 -13.25 C 12.109375 -13.164062 12.15625 -13.066406 12.15625 -12.953125 L 12.15625 -11.109375 C 12.15625 -10.992188 12.109375 -10.894531 12.015625 -10.8125 C 11.929688 -10.738281 11.832031 -10.703125 11.71875 -10.703125 L 8.125 -10.703125 L 8.125 -0.421875 C 8.125 -0.304688 8.082031 -0.207031 8 -0.125 C 7.914062 -0.0390625 7.816406 0 7.703125 0 L 5.875 0 C 5.75 0 5.644531 -0.0390625 5.5625 -0.125 C 5.488281 -0.207031 5.453125 -0.304688 5.453125 -0.421875 L 5.453125 -10.703125 L 1.875 -10.703125 C 1.757812 -10.703125 1.65625 -10.738281 1.5625 -10.8125 C 1.476562 -10.894531 1.4375 -10.992188 1.4375 -11.109375 L 1.4375 -12.953125 C 1.4375 -13.066406 1.476562 -13.164062 1.5625 -13.25 C 1.65625 -13.332031 1.757812 -13.375 1.875 -13.375 Z M 11.71875 -13.375 "/></g></g><g style="fill:#ffffff;fill-opacity:1;"><g transform="translate(170.081854, 230.56759)"><path style="stroke:none" d="M 11.890625 -11.109375 C 11.890625 -10.992188 11.847656 -10.894531 11.765625 -10.8125 C 11.679688 -10.738281 11.582031 -10.703125 11.46875 -10.703125 L 8.125 -10.703125 L 8.125 -2.671875 L 11.46875 -2.671875 C 11.582031 -2.671875 11.679688 -2.628906 11.765625 -2.546875 C 11.847656 -2.460938 11.890625 -2.363281 11.890625 -2.25 L 11.890625 -0.421875 C 11.890625 -0.304688 11.847656 -0.207031 11.765625 -0.125 C 11.679688 -0.0390625 11.582031 0 11.46875 0 L 2.140625 0 C 2.023438 0 1.925781 -0.0390625 1.84375 -0.125 C 1.757812 -0.207031 1.71875 -0.304688 1.71875 -0.421875 L 1.71875 -2.25 C 1.71875 -2.363281 1.757812 -2.460938 1.84375 -2.546875 C 1.925781 -2.628906 2.023438 -2.671875 2.140625 -2.671875 L 5.453125 -2.671875 L 5.453125 -10.703125 L 2.140625 -10.703125 C 2.023438 -10.703125 1.925781 -10.738281 1.84375 -10.8125 C 1.757812 -10.894531 1.71875 -10.992188 1.71875 -11.109375 L 1.71875 -12.953125 C 1.71875 -13.066406 1.757812 -13.164062 1.84375 -13.25 C 1.925781 -13.332031 2.023438 -13.375 2.140625 -13.375 L 11.46875 -13.375 C 11.582031 -13.375 11.679688 -13.332031 11.765625 -13.25 C 11.847656 -13.164062 11.890625 -13.066406 11.890625 -12.953125 Z M 11.890625 -11.109375 "/></g></g><g style="fill:#ffffff;fill-opacity:1;"><g transform="translate(181.715139, 230.56759)"><path style="stroke:none" d="M 11.71875 -13.375 C 11.832031 -13.375 11.9375 -13.335938 12.03125 -13.265625 C 12.113281 -13.171875 12.15625 -13.066406 12.15625 -12.953125 L 12.15625 -0.421875 C 12.15625 -0.304688 12.113281 -0.210938 12.03125 -0.140625 C 11.9375 -0.046875 11.832031 0 11.71875 0 L 9.90625 0 C 9.789062 0 9.691406 -0.046875 9.609375 -0.140625 C 9.523438 -0.210938 9.484375 -0.304688 9.484375 -0.421875 L 9.484375 -8.75 L 7.875 -6.21875 C 7.8125 -6.113281 7.722656 -6.023438 7.609375 -5.953125 C 7.472656 -5.878906 7.347656 -5.84375 7.234375 -5.84375 L 6.375 -5.84375 C 6.257812 -5.84375 6.132812 -5.878906 6 -5.953125 C 5.882812 -6.023438 5.796875 -6.113281 5.734375 -6.21875 L 4.109375 -8.78125 L 4.109375 -0.421875 C 4.109375 -0.304688 4.070312 -0.210938 4 -0.140625 C 3.90625 -0.046875 3.800781 0 3.6875 0 L 1.875 0 C 1.757812 0 1.660156 -0.046875 1.578125 -0.140625 C 1.484375 -0.210938 1.4375 -0.304688 1.4375 -0.421875 L 1.4375 -12.953125 C 1.4375 -13.066406 1.484375 -13.171875 1.578125 -13.265625 C 1.660156 -13.335938 1.757812 -13.375 1.875 -13.375 L 3.6875 -13.375 L 3.828125 -13.359375 C 3.890625 -13.347656 3.953125 -13.316406 4.015625 -13.265625 C 4.148438 -13.191406 4.25 -13.101562 4.3125 -13 L 6.8125 -8.703125 L 9.296875 -13 C 9.367188 -13.101562 9.460938 -13.191406 9.578125 -13.265625 L 9.734375 -13.34375 C 9.785156 -13.363281 9.84375 -13.375 9.90625 -13.375 Z M 11.71875 -13.375 "/></g></g><g style="fill:#ffffff;fill-opacity:1;"><g transform="translate(193.348423, 230.56759)"><path style="stroke:none" d="M 11.890625 -11.109375 C 11.890625 -10.992188 11.847656 -10.894531 11.765625 -10.8125 C 11.679688 -10.738281 11.582031 -10.703125 11.46875 -10.703125 L 8.125 -10.703125 L 8.125 -2.671875 L 11.46875 -2.671875 C 11.582031 -2.671875 11.679688 -2.628906 11.765625 -2.546875 C 11.847656 -2.460938 11.890625 -2.363281 11.890625 -2.25 L 11.890625 -0.421875 C 11.890625 -0.304688 11.847656 -0.207031 11.765625 -0.125 C 11.679688 -0.0390625 11.582031 0 11.46875 0 L 2.140625 0 C 2.023438 0 1.925781 -0.0390625 1.84375 -0.125 C 1.757812 -0.207031 1.71875 -0.304688 1.71875 -0.421875 L 1.71875 -2.25 C 1.71875 -2.363281 1.757812 -2.460938 1.84375 -2.546875 C 1.925781 -2.628906 2.023438 -2.671875 2.140625 -2.671875 L 5.453125 -2.671875 L 5.453125 -10.703125 L 2.140625 -10.703125 C 2.023438 -10.703125 1.925781 -10.738281 1.84375 -10.8125 C 1.757812 -10.894531 1.71875 -10.992188 1.71875 -11.109375 L 1.71875 -12.953125 C 1.71875 -13.066406 1.757812 -13.164062 1.84375 -13.25 C 1.925781 -13.332031 2.023438 -13.375 2.140625 -13.375 L 11.46875 -13.375 C 11.582031 -13.375 11.679688 -13.332031 11.765625 -13.25 C 11.847656 -13.164062 11.890625 -13.066406 11.890625 -12.953125 Z M 11.890625 -11.109375 "/></g></g><g style="fill:#ffffff;fill-opacity:1;"><g transform="translate(204.981707, 230.56759)"><path style="stroke:none" d="M 11.34375 0 L 2.25 0 C 2.125 0 2.019531 -0.0351562 1.9375 -0.109375 C 1.851562 -0.191406 1.8125 -0.289062 1.8125 -0.40625 L 1.8125 -4.625 C 1.8125 -4.738281 1.847656 -4.859375 1.921875 -4.984375 C 1.992188 -5.117188 2.082031 -5.21875 2.1875 -5.28125 L 9.109375 -9.828125 L 9.109375 -10.6875 L 2.25 -10.6875 C 2.125 -10.6875 2.019531 -10.726562 1.9375 -10.8125 C 1.851562 -10.894531 1.8125 -10.992188 1.8125 -11.109375 L 1.8125 -12.953125 C 1.8125 -13.066406 1.851562 -13.164062 1.9375 -13.25 C 2.019531 -13.332031 2.125 -13.375 2.25 -13.375 L 11.34375 -13.375 C 11.46875 -13.375 11.570312 -13.332031 11.65625 -13.25 C 11.738281 -13.164062 11.78125 -13.066406 11.78125 -12.953125 L 11.78125 -8.734375 C 11.78125 -8.617188 11.742188 -8.5 11.671875 -8.375 C 11.609375 -8.25 11.523438 -8.15625 11.421875 -8.09375 L 4.5 -3.53125 L 4.5 -2.671875 L 11.34375 -2.671875 C 11.46875 -2.671875 11.570312 -2.628906 11.65625 -2.546875 C 11.738281 -2.460938 11.78125 -2.363281 11.78125 -2.25 L 11.78125 -0.40625 C 11.78125 -0.289062 11.738281 -0.191406 11.65625 -0.109375 C 11.570312 -0.0351562 11.46875 0 11.34375 0 Z M 11.34375 0 "/></g></g><g style="fill:#ffffff;fill-opacity:1;"><g transform="translate(216.614991, 230.56759)"><path style="stroke:none" d="M 11.9375 -11.109375 C 11.9375 -10.992188 11.894531 -10.894531 11.8125 -10.8125 C 11.738281 -10.738281 11.644531 -10.703125 11.53125 -10.703125 L 4.3125 -10.703125 L 4.3125 -8.015625 L 10.84375 -8.015625 C 10.957031 -8.015625 11.054688 -7.972656 11.140625 -7.890625 C 11.222656 -7.816406 11.265625 -7.722656 11.265625 -7.609375 L 11.265625 -5.765625 C 11.265625 -5.648438 11.222656 -5.550781 11.140625 -5.46875 C 11.054688 -5.382812 10.957031 -5.34375 10.84375 -5.34375 L 4.3125 -5.34375 L 4.3125 -2.671875 L 11.53125 -2.671875 C 11.644531 -2.671875 11.738281 -2.628906 11.8125 -2.546875 C 11.894531 -2.460938 11.9375 -2.363281 11.9375 -2.25 L 11.9375 -0.421875 C 11.9375 -0.304688 11.894531 -0.207031 11.8125 -0.125 C 11.738281 -0.0390625 11.644531 0 11.53125 0 L 2.046875 0 C 1.929688 0 1.832031 -0.0390625 1.75 -0.125 C 1.675781 -0.207031 1.640625 -0.304688 1.640625 -0.421875 L 1.640625 -12.953125 C 1.640625 -13.066406 1.675781 -13.164062 1.75 -13.25 C 1.832031 -13.332031 1.929688 -13.375 2.046875 -13.375 L 11.53125 -13.375 C 11.644531 -13.375 11.738281 -13.332031 11.8125 -13.25 C 11.894531 -13.164062 11.9375 -13.066406 11.9375 -12.953125 Z M 11.9375 -11.109375 "/></g></g><g style="fill:#ffffff;fill-opacity:1;"><g transform="translate(228.229317, 230.56759)"><path style="stroke:none" d=""/></g></g><g style="fill:#ffffff;fill-opacity:1;"><g transform="translate(228.229317, 230.56759)"><path style="stroke:none" d=""/></g></g><g style="fill:#ffffff;fill-opacity:1;"><g transform="translate(239.843105, 230.56759)"><path style="stroke:none" d=""/></g></g><g style="fill:#ffffff;fill-opacity:1;"><g transform="translate(251.464755, 230.56759)"><path style="stroke:none" d=""/></g></g><g style="fill:#ffffff;fill-opacity:1;"><g transform="translate(251.464755, 230.56759)"><path style="stroke:none" d="M 8.625 -13.375 C 8.738281 -13.375 8.847656 -13.332031 8.953125 -13.25 C 9.066406 -13.175781 9.144531 -13.085938 9.1875 -12.984375 L 12 -6 C 12.03125 -5.894531 12.0625 -5.757812 12.09375 -5.59375 C 12.132812 -5.4375 12.15625 -5.300781 12.15625 -5.1875 L 12.15625 -0.421875 C 12.15625 -0.304688 12.109375 -0.207031 12.015625 -0.125 C 11.929688 -0.0390625 11.832031 0 11.71875 0 L 9.890625 0 C 9.773438 0 9.671875 -0.0390625 9.578125 -0.125 C 9.492188 -0.207031 9.453125 -0.304688 9.453125 -0.421875 L 9.453125 -2.671875 L 4.109375 -2.671875 L 4.109375 -0.421875 C 4.109375 -0.304688 4.066406 -0.207031 3.984375 -0.125 C 3.898438 -0.0390625 3.800781 0 3.6875 0 L 1.875 0 C 1.757812 0 1.65625 -0.0390625 1.5625 -0.125 C 1.476562 -0.207031 1.4375 -0.304688 1.4375 -0.421875 L 1.4375 -5.1875 C 1.4375 -5.300781 1.453125 -5.4375 1.484375 -5.59375 C 1.523438 -5.757812 1.5625 -5.894531 1.59375 -6 L 4.390625 -12.984375 C 4.441406 -13.085938 4.519531 -13.175781 4.625 -13.25 C 4.738281 -13.332031 4.851562 -13.375 4.96875 -13.375 Z M 4.21875 -5.34375 L 9.359375 -5.34375 L 7.21875 -10.703125 L 6.359375 -10.703125 Z M 4.21875 -5.34375 "/></g></g><g style="fill:#ffffff;fill-opacity:1;"><g transform="translate(263.098039, 230.56759)"><path style="stroke:none" d="M 4.875 0 C 4.40625 0 3.960938 -0.0859375 3.546875 -0.265625 C 3.128906 -0.453125 2.765625 -0.703125 2.453125 -1.015625 C 2.140625 -1.328125 1.890625 -1.691406 1.703125 -2.109375 C 1.523438 -2.523438 1.4375 -2.972656 1.4375 -3.453125 L 1.4375 -12.953125 C 1.4375 -13.066406 1.476562 -13.164062 1.5625 -13.25 C 1.65625 -13.332031 1.757812 -13.375 1.875 -13.375 L 3.6875 -13.375 C 3.800781 -13.375 3.898438 -13.332031 3.984375 -13.25 C 4.066406 -13.164062 4.109375 -13.066406 4.109375 -12.953125 L 4.109375 -3.453125 C 4.109375 -3.234375 4.179688 -3.046875 4.328125 -2.890625 C 4.484375 -2.742188 4.664062 -2.671875 4.875 -2.671875 L 8.703125 -2.671875 C 8.921875 -2.671875 9.097656 -2.742188 9.234375 -2.890625 C 9.378906 -3.046875 9.453125 -3.234375 9.453125 -3.453125 L 9.453125 -12.953125 C 9.453125 -13.066406 9.492188 -13.164062 9.578125 -13.25 C 9.671875 -13.332031 9.773438 -13.375 9.890625 -13.375 L 11.71875 -13.375 C 11.832031 -13.375 11.929688 -13.332031 12.015625 -13.25 C 12.109375 -13.164062 12.15625 -13.066406 12.15625 -12.953125 L 12.15625 -3.453125 C 12.15625 -2.972656 12.0625 -2.523438 11.875 -2.109375 C 11.695312 -1.691406 11.453125 -1.328125 11.140625 -1.015625 C 10.828125 -0.703125 10.457031 -0.453125 10.03125 -0.265625 C 9.613281 -0.0859375 9.171875 0 8.703125 0 Z M 4.875 0 "/></g></g><g style="fill:#ffffff;fill-opacity:1;"><g transform="translate(274.731323, 230.56759)"><path style="stroke:none" d="M 11.71875 -13.375 C 11.832031 -13.375 11.929688 -13.332031 12.015625 -13.25 C 12.109375 -13.164062 12.15625 -13.066406 12.15625 -12.953125 L 12.15625 -11.109375 C 12.15625 -10.992188 12.109375 -10.894531 12.015625 -10.8125 C 11.929688 -10.738281 11.832031 -10.703125 11.71875 -10.703125 L 8.125 -10.703125 L 8.125 -0.421875 C 8.125 -0.304688 8.082031 -0.207031 8 -0.125 C 7.914062 -0.0390625 7.816406 0 7.703125 0 L 5.875 0 C 5.75 0 5.644531 -0.0390625 5.5625 -0.125 C 5.488281 -0.207031 5.453125 -0.304688 5.453125 -0.421875 L 5.453125 -10.703125 L 1.875 -10.703125 C 1.757812 -10.703125 1.65625 -10.738281 1.5625 -10.8125 C 1.476562 -10.894531 1.4375 -10.992188 1.4375 -11.109375 L 1.4375 -12.953125 C 1.4375 -13.066406 1.476562 -13.164062 1.5625 -13.25 C 1.65625 -13.332031 1.757812 -13.375 1.875 -13.375 Z M 11.71875 -13.375 "/></g></g><g style="fill:#ffffff;fill-opacity:1;"><g transform="translate(286.364607, 230.56759)"><path style="stroke:none" d="M 8.703125 -13.359375 C 9.179688 -13.359375 9.628906 -13.265625 10.046875 -13.078125 C 10.460938 -12.898438 10.828125 -12.65625 11.140625 -12.34375 C 11.453125 -12.03125 11.695312 -11.664062 11.875 -11.25 C 12.0625 -10.832031 12.15625 -10.390625 12.15625 -9.921875 L 12.15625 -3.4375 C 12.15625 -2.96875 12.0625 -2.523438 11.875 -2.109375 C 11.695312 -1.691406 11.453125 -1.328125 11.140625 -1.015625 C 10.828125 -0.703125 10.460938 -0.453125 10.046875 -0.265625 C 9.628906 -0.0859375 9.179688 0 8.703125 0 L 4.890625 0 C 4.410156 0 3.960938 -0.0859375 3.546875 -0.265625 C 3.128906 -0.453125 2.765625 -0.703125 2.453125 -1.015625 C 2.140625 -1.328125 1.890625 -1.691406 1.703125 -2.109375 C 1.523438 -2.523438 1.4375 -2.96875 1.4375 -3.4375 L 1.4375 -9.921875 C 1.4375 -10.390625 1.523438 -10.832031 1.703125 -11.25 C 1.890625 -11.664062 2.140625 -12.03125 2.453125 -12.34375 C 2.765625 -12.65625 3.128906 -12.898438 3.546875 -13.078125 C 3.960938 -13.265625 4.410156 -13.359375 4.890625 -13.359375 Z M 9.484375 -9.921875 C 9.484375 -10.140625 9.40625 -10.320312 9.25 -10.46875 C 9.101562 -10.613281 8.921875 -10.6875 8.703125 -10.6875 L 4.890625 -10.6875 C 4.671875 -10.6875 4.484375 -10.613281 4.328125 -10.46875 C 4.179688 -10.320312 4.109375 -10.140625 4.109375 -9.921875 L 4.109375 -3.4375 C 4.109375 -3.207031 4.179688 -3.019531 4.328125 -2.875 C 4.484375 -2.738281 4.671875 -2.671875 4.890625 -2.671875 L 8.703125 -2.671875 C 8.921875 -2.671875 9.101562 -2.738281 9.25 -2.875 C 9.40625 -3.019531 9.484375 -3.207031 9.484375 -3.4375 Z M 9.484375 -9.921875 "/></g></g><g style="fill:#ffffff;fill-opacity:1;"><g transform="translate(297.997892, 230.56759)"><path style="stroke:none" d="M 11.71875 -13.375 C 11.832031 -13.375 11.9375 -13.335938 12.03125 -13.265625 C 12.113281 -13.171875 12.15625 -13.066406 12.15625 -12.953125 L 12.15625 -0.421875 C 12.15625 -0.304688 12.113281 -0.210938 12.03125 -0.140625 C 11.9375 -0.046875 11.832031 0 11.71875 0 L 9.90625 0 C 9.789062 0 9.691406 -0.046875 9.609375 -0.140625 C 9.523438 -0.210938 9.484375 -0.304688 9.484375 -0.421875 L 9.484375 -8.75 L 7.875 -6.21875 C 7.8125 -6.113281 7.722656 -6.023438 7.609375 -5.953125 C 7.472656 -5.878906 7.347656 -5.84375 7.234375 -5.84375 L 6.375 -5.84375 C 6.257812 -5.84375 6.132812 -5.878906 6 -5.953125 C 5.882812 -6.023438 5.796875 -6.113281 5.734375 -6.21875 L 4.109375 -8.78125 L 4.109375 -0.421875 C 4.109375 -0.304688 4.070312 -0.210938 4 -0.140625 C 3.90625 -0.046875 3.800781 0 3.6875 0 L 1.875 0 C 1.757812 0 1.660156 -0.046875 1.578125 -0.140625 C 1.484375 -0.210938 1.4375 -0.304688 1.4375 -0.421875 L 1.4375 -12.953125 C 1.4375 -13.066406 1.484375 -13.171875 1.578125 -13.265625 C 1.660156 -13.335938 1.757812 -13.375 1.875 -13.375 L 3.6875 -13.375 L 3.828125 -13.359375 C 3.890625 -13.347656 3.953125 -13.316406 4.015625 -13.265625 C 4.148438 -13.191406 4.25 -13.101562 4.3125 -13 L 6.8125 -8.703125 L 9.296875 -13 C 9.367188 -13.101562 9.460938 -13.191406 9.578125 -13.265625 L 9.734375 -13.34375 C 9.785156 -13.363281 9.84375 -13.375 9.90625 -13.375 Z M 11.71875 -13.375 "/></g></g><g style="fill:#ffffff;fill-opacity:1;"><g transform="translate(309.631176, 230.56759)"><path style="stroke:none" d="M 8.625 -13.375 C 8.738281 -13.375 8.847656 -13.332031 8.953125 -13.25 C 9.066406 -13.175781 9.144531 -13.085938 9.1875 -12.984375 L 12 -6 C 12.03125 -5.894531 12.0625 -5.757812 12.09375 -5.59375 C 12.132812 -5.4375 12.15625 -5.300781 12.15625 -5.1875 L 12.15625 -0.421875 C 12.15625 -0.304688 12.109375 -0.207031 12.015625 -0.125 C 11.929688 -0.0390625 11.832031 0 11.71875 0 L 9.890625 0 C 9.773438 0 9.671875 -0.0390625 9.578125 -0.125 C 9.492188 -0.207031 9.453125 -0.304688 9.453125 -0.421875 L 9.453125 -2.671875 L 4.109375 -2.671875 L 4.109375 -0.421875 C 4.109375 -0.304688 4.066406 -0.207031 3.984375 -0.125 C 3.898438 -0.0390625 3.800781 0 3.6875 0 L 1.875 0 C 1.757812 0 1.65625 -0.0390625 1.5625 -0.125 C 1.476562 -0.207031 1.4375 -0.304688 1.4375 -0.421875 L 1.4375 -5.1875 C 1.4375 -5.300781 1.453125 -5.4375 1.484375 -5.59375 C 1.523438 -5.757812 1.5625 -5.894531 1.59375 -6 L 4.390625 -12.984375 C 4.441406 -13.085938 4.519531 -13.175781 4.625 -13.25 C 4.738281 -13.332031 4.851562 -13.375 4.96875 -13.375 Z M 4.21875 -5.34375 L 9.359375 -5.34375 L 7.21875 -10.703125 L 6.359375 -10.703125 Z M 4.21875 -5.34375 "/></g></g><g style="fill:#ffffff;fill-opacity:1;"><g transform="translate(321.26446, 230.56759)"><path style="stroke:none" d="M 11.71875 -13.375 C 11.832031 -13.375 11.929688 -13.332031 12.015625 -13.25 C 12.109375 -13.164062 12.15625 -13.066406 12.15625 -12.953125 L 12.15625 -11.109375 C 12.15625 -10.992188 12.109375 -10.894531 12.015625 -10.8125 C 11.929688 -10.738281 11.832031 -10.703125 11.71875 -10.703125 L 8.125 -10.703125 L 8.125 -0.421875 C 8.125 -0.304688 8.082031 -0.207031 8 -0.125 C 7.914062 -0.0390625 7.816406 0 7.703125 0 L 5.875 0 C 5.75 0 5.644531 -0.0390625 5.5625 -0.125 C 5.488281 -0.207031 5.453125 -0.304688 5.453125 -0.421875 L 5.453125 -10.703125 L 1.875 -10.703125 C 1.757812 -10.703125 1.65625 -10.738281 1.5625 -10.8125 C 1.476562 -10.894531 1.4375 -10.992188 1.4375 -11.109375 L 1.4375 -12.953125 C 1.4375 -13.066406 1.476562 -13.164062 1.5625 -13.25 C 1.65625 -13.332031 1.757812 -13.375 1.875 -13.375 Z M 11.71875 -13.375 "/></g></g><g style="fill:#ffffff;fill-opacity:1;"><g transform="translate(332.897744, 230.56759)"><path style="stroke:none" d="M 11.9375 -11.109375 C 11.9375 -10.992188 11.894531 -10.894531 11.8125 -10.8125 C 11.738281 -10.738281 11.644531 -10.703125 11.53125 -10.703125 L 4.3125 -10.703125 L 4.3125 -8.015625 L 10.84375 -8.015625 C 10.957031 -8.015625 11.054688 -7.972656 11.140625 -7.890625 C 11.222656 -7.816406 11.265625 -7.722656 11.265625 -7.609375 L 11.265625 -5.765625 C 11.265625 -5.648438 11.222656 -5.550781 11.140625 -5.46875 C 11.054688 -5.382812 10.957031 -5.34375 10.84375 -5.34375 L 4.3125 -5.34375 L 4.3125 -2.671875 L 11.53125 -2.671875 C 11.644531 -2.671875 11.738281 -2.628906 11.8125 -2.546875 C 11.894531 -2.460938 11.9375 -2.363281 11.9375 -2.25 L 11.9375 -0.421875 C 11.9375 -0.304688 11.894531 -0.207031 11.8125 -0.125 C 11.738281 -0.0390625 11.644531 0 11.53125 0 L 2.046875 0 C 1.929688 0 1.832031 -0.0390625 1.75 -0.125 C 1.675781 -0.207031 1.640625 -0.304688 1.640625 -0.421875 L 1.640625 -12.953125 C 1.640625 -13.066406 1.675781 -13.164062 1.75 -13.25 C 1.832031 -13.332031 1.929688 -13.375 2.046875 -13.375 L 11.53125 -13.375 C 11.644531 -13.375 11.738281 -13.332031 11.8125 -13.25 C 11.894531 -13.164062 11.9375 -13.066406 11.9375 -12.953125 Z M 11.9375 -11.109375 "/></g></g><g style="fill:#ffffff;fill-opacity:1;"><g transform="translate(344.512065, 230.56759)"><path style="stroke:none" d=""/></g></g><g clip-rule="nonzero" clip-path="url(#958f1b3c5d)"><path style=" stroke:none;fill-rule:nonzero;fill:#2a2e30;fill-opacity:1;" d="M 123.003906 220.285156 C 122.15625 219.546875 121.621094 218.453125 121.636719 217.238281 C 121.664062 215.074219 123.453125 213.316406 125.613281 213.328125 C 127.792969 213.335938 129.558594 215.105469 129.558594 217.289062 C 129.558594 218.453125 129.050781 219.558594 128.25 220.285156 Z M 129.539062 220.953125 C 129.539062 220.582031 129.238281 220.28125 128.867188 220.28125 L 122.324219 220.28125 C 121.953125 220.28125 121.652344 220.582031 121.652344 220.953125 C 121.652344 221.320312 121.953125 221.621094 122.324219 221.621094 L 128.867188 221.621094 C 129.238281 221.621094 129.539062 221.320312 129.539062 220.953125 Z M 127.800781 228.824219 L 127.363281 221.621094 L 123.828125 221.621094 L 123.394531 228.824219 Z M 128.632812 228.824219 L 122.558594 228.824219 L 122.558594 230.382812 L 120.140625 232.160156 C 119.886719 232.308594 119.730469 232.582031 119.730469 232.875 C 119.730469 233.339844 120.105469 233.710938 120.566406 233.710938 L 130.625 233.707031 C 131.085938 233.707031 131.460938 233.332031 131.460938 232.871094 C 131.460938 232.578125 131.304688 232.304688 131.050781 232.15625 L 128.710938 230.320312 Z M 131.539062 234.320312 C 131.539062 233.984375 131.269531 233.710938 130.933594 233.710938 L 120.261719 233.710938 C 119.925781 233.710938 119.652344 233.984375 119.652344 234.320312 C 119.652344 234.65625 119.925781 234.925781 120.261719 234.925781 L 130.933594 234.925781 C 131.269531 234.925781 131.539062 234.65625 131.539062 234.320312 Z M 131.539062 234.320312 "/></g><g clip-rule="nonzero" clip-path="url(#fc651e33ee)"><path style=" stroke:none;fill-rule:nonzero;fill:#ffffff;fill-opacity:1;" d="M 128.304688 220.417969 L 122.953125 220.417969 L 122.917969 220.386719 C 122 219.59375 121.484375 218.445312 121.5 217.234375 C 121.527344 214.996094 123.371094 213.179688 125.617188 213.191406 C 127.863281 213.203125 129.691406 215.039062 129.691406 217.289062 C 129.691406 218.460938 129.1875 219.617188 128.339844 220.382812 Z M 123.054688 220.148438 L 128.199219 220.148438 C 128.964844 219.433594 129.421875 218.367188 129.421875 217.289062 C 129.421875 215.1875 127.714844 213.472656 125.613281 213.460938 C 123.519531 213.453125 121.796875 215.148438 121.769531 217.238281 C 121.757812 218.351562 122.222656 219.410156 123.054688 220.148438 Z M 122.816406 216.632812 C 123.023438 215.75 123.648438 215.011719 124.484375 214.65625 C 124.554688 214.628906 124.585938 214.550781 124.558594 214.480469 C 124.527344 214.414062 124.449219 214.378906 124.378906 214.410156 C 123.464844 214.796875 122.78125 215.605469 122.554688 216.570312 C 122.535156 216.640625 122.582031 216.714844 122.65625 216.730469 C 122.664062 216.734375 122.675781 216.734375 122.683594 216.734375 C 122.746094 216.734375 122.800781 216.695312 122.816406 216.632812 Z M 123.230469 219.125 C 123.292969 219.078125 123.304688 218.996094 123.261719 218.933594 C 123.089844 218.6875 122.953125 218.417969 122.867188 218.128906 C 122.84375 218.054688 122.769531 218.015625 122.699219 218.039062 C 122.625 218.058594 122.585938 218.136719 122.609375 218.207031 C 122.707031 218.523438 122.851562 218.820312 123.042969 219.089844 C 123.070312 219.128906 123.109375 219.148438 123.152344 219.148438 C 123.179688 219.148438 123.207031 219.140625 123.230469 219.125 Z M 128.867188 221.757812 L 122.324219 221.757812 C 121.878906 221.757812 121.519531 221.394531 121.519531 220.953125 C 121.519531 220.507812 121.878906 220.148438 122.324219 220.148438 L 128.867188 220.148438 C 129.3125 220.148438 129.671875 220.507812 129.671875 220.953125 C 129.671875 221.394531 129.3125 221.757812 128.867188 221.757812 Z M 122.324219 220.417969 C 122.027344 220.417969 121.789062 220.65625 121.789062 220.953125 C 121.789062 221.246094 122.027344 221.488281 122.324219 221.488281 L 128.867188 221.488281 C 129.164062 221.488281 129.402344 221.246094 129.402344 220.953125 C 129.402344 220.65625 129.164062 220.417969 128.867188 220.417969 Z M 127.800781 228.957031 L 123.394531 228.957031 C 123.355469 228.957031 123.320312 228.945312 123.292969 228.914062 C 123.269531 228.890625 123.253906 228.851562 123.257812 228.816406 L 123.695312 221.613281 C 123.699219 221.542969 123.757812 221.484375 123.828125 221.484375 L 127.363281 221.484375 C 127.433594 221.484375 127.492188 221.542969 127.5 221.613281 L 127.933594 228.816406 C 127.9375 228.851562 127.925781 228.886719 127.898438 228.914062 C 127.875 228.945312 127.835938 228.957031 127.800781 228.957031 Z M 123.535156 228.6875 L 127.65625 228.6875 L 127.234375 221.757812 L 123.957031 221.757812 Z M 120.566406 233.847656 C 120.308594 233.847656 120.0625 233.746094 119.878906 233.5625 C 119.699219 233.378906 119.597656 233.136719 119.597656 232.875 C 119.597656 232.539062 119.777344 232.222656 120.066406 232.046875 L 122.425781 230.316406 L 122.425781 228.824219 C 122.425781 228.75 122.484375 228.6875 122.558594 228.6875 L 128.632812 228.6875 C 128.703125 228.6875 128.765625 228.746094 128.769531 228.816406 L 128.84375 230.253906 L 131.128906 232.042969 C 131.417969 232.21875 131.597656 232.535156 131.597656 232.871094 C 131.597656 233.40625 131.160156 233.839844 130.625 233.84375 Z M 122.695312 228.957031 L 122.695312 230.382812 C 122.695312 230.425781 122.675781 230.46875 122.640625 230.492188 L 120.21875 232.269531 C 120.214844 232.269531 120.210938 232.273438 120.207031 232.277344 C 119.996094 232.402344 119.867188 232.632812 119.867188 232.878906 C 119.867188 233.0625 119.9375 233.238281 120.070312 233.371094 C 120.203125 233.503906 120.378906 233.578125 120.566406 233.578125 L 130.628906 233.574219 C 131.011719 233.574219 131.328125 233.257812 131.328125 232.871094 C 131.328125 232.625 131.195312 232.394531 130.984375 232.269531 C 130.980469 232.269531 130.972656 232.265625 130.96875 232.261719 L 128.628906 230.425781 C 128.597656 230.402344 128.578125 230.367188 128.578125 230.328125 L 128.503906 228.957031 Z M 130.933594 235.0625 L 120.261719 235.0625 C 119.851562 235.0625 119.515625 234.730469 119.515625 234.320312 C 119.515625 233.910156 119.851562 233.578125 120.261719 233.578125 L 130.933594 233.578125 C 131.34375 233.578125 131.675781 233.910156 131.675781 234.320312 C 131.675781 234.730469 131.34375 235.0625 130.933594 235.0625 Z M 120.261719 233.847656 C 120 233.847656 119.785156 234.058594 119.785156 234.320312 C 119.785156 234.582031 120 234.792969 120.261719 234.792969 L 130.933594 234.792969 C 131.195312 234.792969 131.40625 234.582031 131.40625 234.320312 C 131.40625 234.058594 131.195312 233.847656 130.933594 233.847656 Z M 120.261719 233.847656 "/></g><g clip-rule="nonzero" clip-path="url(#a04a47e574)"><path style=" stroke:none;fill-rule:nonzero;fill:#2a2e30;fill-opacity:1;" d="M 239.570312 220.285156 C 238.71875 219.546875 238.183594 218.453125 238.199219 217.238281 C 238.226562 215.074219 240.015625 213.316406 242.179688 213.328125 C 244.355469 213.335938 246.121094 215.105469 246.121094 217.289062 C 246.121094 218.453125 245.613281 219.558594 244.816406 220.285156 Z M 246.101562 220.953125 C 246.101562 220.582031 245.800781 220.28125 245.433594 220.28125 L 238.886719 220.28125 C 238.515625 220.28125 238.21875 220.582031 238.21875 220.953125 C 238.21875 221.320312 238.515625 221.621094 238.886719 221.621094 L 245.433594 221.621094 C 245.800781 221.621094 246.101562 221.320312 246.101562 220.953125 Z M 244.363281 228.824219 L 243.925781 221.621094 L 240.394531 221.621094 L 239.957031 228.824219 Z M 245.195312 228.824219 L 239.125 228.824219 L 239.125 230.382812 L 236.703125 232.160156 C 236.449219 232.308594 236.292969 232.582031 236.292969 232.875 C 236.292969 233.339844 236.667969 233.710938 237.128906 233.710938 L 247.191406 233.707031 C 247.652344 233.707031 248.023438 233.332031 248.023438 232.871094 C 248.023438 232.578125 247.871094 232.304688 247.617188 232.15625 L 245.277344 230.320312 Z M 248.105469 234.320312 C 248.105469 233.984375 247.832031 233.710938 247.496094 233.710938 L 236.824219 233.710938 C 236.488281 233.710938 236.214844 233.984375 236.214844 234.320312 C 236.214844 234.65625 236.488281 234.925781 236.824219 234.925781 L 247.496094 234.925781 C 247.832031 234.925781 248.105469 234.65625 248.105469 234.320312 Z M 248.105469 234.320312 "/></g><g clip-rule="nonzero" clip-path="url(#d5ad65d1c1)"><path style=" stroke:none;fill-rule:nonzero;fill:#ffffff;fill-opacity:1;" d="M 244.867188 220.417969 L 239.519531 220.417969 L 239.480469 220.386719 C 238.566406 219.59375 238.050781 218.445312 238.066406 217.234375 C 238.09375 214.996094 239.9375 213.179688 242.179688 213.191406 C 244.425781 213.203125 246.253906 215.039062 246.253906 217.289062 C 246.253906 218.460938 245.75 219.617188 244.90625 220.382812 Z M 239.621094 220.148438 L 244.761719 220.148438 C 245.53125 219.433594 245.984375 218.367188 245.984375 217.289062 C 245.984375 215.1875 244.277344 213.472656 242.179688 213.460938 C 240.085938 213.453125 238.359375 215.148438 238.335938 217.238281 C 238.320312 218.351562 238.789062 219.410156 239.621094 220.148438 Z M 239.378906 216.632812 C 239.589844 215.75 240.210938 215.011719 241.050781 214.65625 C 241.117188 214.628906 241.148438 214.550781 241.121094 214.480469 C 241.089844 214.414062 241.011719 214.378906 240.945312 214.410156 C 240.027344 214.796875 239.34375 215.605469 239.117188 216.570312 C 239.101562 216.640625 239.144531 216.714844 239.21875 216.730469 C 239.230469 216.734375 239.238281 216.734375 239.25 216.734375 C 239.3125 216.734375 239.367188 216.695312 239.378906 216.632812 Z M 239.792969 219.125 C 239.855469 219.078125 239.871094 218.996094 239.828125 218.933594 C 239.652344 218.6875 239.519531 218.417969 239.429688 218.128906 C 239.40625 218.054688 239.332031 218.015625 239.261719 218.039062 C 239.191406 218.058594 239.148438 218.136719 239.171875 218.207031 C 239.269531 218.523438 239.414062 218.820312 239.605469 219.089844 C 239.632812 219.128906 239.675781 219.148438 239.714844 219.148438 C 239.742188 219.148438 239.769531 219.140625 239.792969 219.125 Z M 245.433594 221.757812 L 238.886719 221.757812 C 238.445312 221.757812 238.082031 221.394531 238.082031 220.953125 C 238.082031 220.507812 238.445312 220.148438 238.886719 220.148438 L 245.433594 220.148438 C 245.875 220.148438 246.238281 220.507812 246.238281 220.953125 C 246.238281 221.394531 245.875 221.757812 245.433594 221.757812 Z M 238.886719 220.417969 C 238.59375 220.417969 238.351562 220.65625 238.351562 220.953125 C 238.351562 221.246094 238.59375 221.488281 238.886719 221.488281 L 245.433594 221.488281 C 245.726562 221.488281 245.96875 221.246094 245.96875 220.953125 C 245.96875 220.65625 245.726562 220.417969 245.433594 220.417969 Z M 244.363281 228.957031 L 239.957031 228.957031 C 239.917969 228.957031 239.882812 228.945312 239.859375 228.914062 C 239.832031 228.890625 239.820312 228.851562 239.820312 228.816406 L 240.257812 221.613281 C 240.261719 221.542969 240.320312 221.484375 240.394531 221.484375 L 243.925781 221.484375 C 244 221.484375 244.058594 221.542969 244.0625 221.613281 L 244.5 228.816406 C 244.5 228.851562 244.488281 228.886719 244.460938 228.914062 C 244.4375 228.945312 244.402344 228.957031 244.363281 228.957031 Z M 240.097656 228.6875 L 244.21875 228.6875 L 243.800781 221.757812 L 240.519531 221.757812 Z M 237.128906 233.847656 C 236.871094 233.847656 236.628906 233.746094 236.445312 233.5625 C 236.261719 233.378906 236.160156 233.136719 236.160156 232.875 C 236.160156 232.539062 236.339844 232.222656 236.628906 232.046875 L 238.988281 230.316406 L 238.988281 228.824219 C 238.988281 228.75 239.050781 228.6875 239.125 228.6875 L 245.195312 228.6875 C 245.269531 228.6875 245.328125 228.746094 245.332031 228.816406 L 245.40625 230.253906 L 247.691406 232.042969 C 247.980469 232.21875 248.160156 232.535156 248.160156 232.871094 C 248.160156 233.40625 247.726562 233.839844 247.191406 233.84375 Z M 239.257812 228.957031 L 239.257812 230.382812 C 239.257812 230.425781 239.238281 230.46875 239.203125 230.492188 L 236.785156 232.269531 C 236.78125 232.269531 236.777344 232.273438 236.773438 232.277344 C 236.5625 232.402344 236.429688 232.632812 236.429688 232.878906 C 236.429688 233.0625 236.503906 233.238281 236.636719 233.371094 C 236.765625 233.503906 236.941406 233.578125 237.128906 233.578125 L 247.191406 233.574219 C 247.578125 233.574219 247.890625 233.257812 247.890625 232.871094 C 247.890625 232.625 247.757812 232.394531 247.546875 232.269531 C 247.542969 232.269531 247.539062 232.265625 247.53125 232.261719 L 245.191406 230.425781 C 245.160156 230.402344 245.140625 230.367188 245.140625 230.328125 L 245.066406 228.957031 Z M 247.496094 235.0625 L 236.824219 235.0625 C 236.414062 235.0625 236.082031 234.730469 236.082031 234.320312 C 236.082031 233.910156 236.414062 233.578125 236.824219 233.578125 L 247.496094 233.578125 C 247.90625 233.578125 248.238281 233.910156 248.238281 234.320312 C 248.238281 234.730469 247.90625 235.0625 247.496094 235.0625 Z M 236.824219 233.847656 C 236.5625 233.847656 236.351562 234.058594 236.351562 234.320312 C 236.351562 234.582031 236.5625 234.792969 236.824219 234.792969 L 247.496094 234.792969 C 247.757812 234.792969 247.96875 234.582031 247.96875 234.320312 C 247.96875 234.058594 247.757812 233.847656 247.496094 233.847656 Z M 236.824219 233.847656 "/></g><path style=" stroke:none;fill-rule:nonzero;fill:#2a2e30;fill-opacity:1;" d="M 19.417969 110.5625 L 342.820312 110.5625 C 345.113281 110.5625 347.3125 111.472656 348.933594 113.09375 C 350.554688 114.714844 351.464844 116.914062 351.464844 119.207031 L 351.464844 197.96875 C 351.464844 200.261719 350.554688 202.460938 348.933594 204.082031 C 347.3125 205.703125 345.113281 206.613281 342.820312 206.613281 L 19.417969 206.613281 C 17.125 206.613281 14.929688 205.703125 13.304688 204.082031 C 11.683594 202.460938 10.773438 200.261719 10.773438 197.96875 L 10.773438 119.207031 C 10.773438 114.433594 14.644531 110.5625 19.417969 110.5625 Z M 19.417969 110.5625 "/><g style="fill:#ffffff;fill-opacity:1;"><g transform="translate(24.029726, 182.593905)"><path style="stroke:none" d=""/></g></g><g style="fill:#ffffff;fill-opacity:1;"><g transform="translate(38.163441, 182.593905)"><path style="stroke:none" d=""/></g></g><g style="fill:#ffffff;fill-opacity:1;"><g transform="translate(52.297155, 182.593905)"><path style="stroke:none" d=""/></g></g><g style="fill:#ffffff;fill-opacity:1;"><g transform="translate(66.434454, 182.593905)"><path style="stroke:none" d=""/></g></g><g style="fill:#ffffff;fill-opacity:1;"><g transform="translate(66.434454, 182.593905)"><path style="stroke:none" d="M 6.234375 0 L 6.234375 -43.140625 L 11.28125 -43.140625 L 11.28125 -3.1875 L 30.453125 -3.1875 L 30.453125 0 Z M 6.234375 0 "/></g></g><g style="fill:#ffffff;fill-opacity:1;"><g transform="translate(96.360989, 182.593905)"><path style="stroke:none" d="M 16.65625 0.65625 C 12.226562 0.65625 8.753906 -0.722656 6.234375 -3.484375 C 3.710938 -6.242188 2.453125 -10.390625 2.453125 -15.921875 C 2.453125 -21.492188 3.664062 -25.875 6.09375 -29.0625 C 8.53125 -32.25 11.851562 -33.84375 16.0625 -33.84375 C 19.863281 -33.84375 22.789062 -32.523438 24.84375 -29.890625 C 26.90625 -27.265625 27.9375 -23.539062 27.9375 -18.71875 C 27.9375 -17.875 27.890625 -17.1875 27.796875 -16.65625 C 27.710938 -16.125 27.648438 -15.789062 27.609375 -15.65625 L 7.5 -15.65625 C 7.5 -6.71875 10.726562 -2.25 17.1875 -2.25 C 18.957031 -2.25 20.472656 -2.570312 21.734375 -3.21875 C 22.992188 -3.863281 23.976562 -4.550781 24.6875 -5.28125 C 25.394531 -6.007812 25.75 -6.4375 25.75 -6.5625 L 27.671875 -4.984375 C 27.671875 -4.804688 27.25 -4.238281 26.40625 -3.28125 C 25.570312 -2.332031 24.332031 -1.4375 22.6875 -0.59375 C 21.050781 0.238281 19.039062 0.65625 16.65625 0.65625 Z M 23.421875 -18.453125 L 23.484375 -19.703125 C 23.484375 -27.222656 21.007812 -30.984375 16.0625 -30.984375 C 13.445312 -30.984375 11.429688 -29.953125 10.015625 -27.890625 C 8.597656 -25.835938 7.78125 -22.691406 7.5625 -18.453125 Z M 23.421875 -18.453125 "/></g></g><g style="fill:#ffffff;fill-opacity:1;"><g transform="translate(125.093102, 182.593905)"><path style="stroke:none" d="M 6.234375 -43.140625 L 16.59375 -43.140625 C 21.007812 -43.140625 24.445312 -41.988281 26.90625 -39.6875 C 29.363281 -37.382812 30.59375 -33.976562 30.59375 -29.46875 C 30.59375 -26.101562 29.925781 -23.347656 28.59375 -21.203125 C 27.269531 -19.054688 25.554688 -17.503906 23.453125 -16.546875 C 21.359375 -15.597656 19.113281 -15.125 16.71875 -15.125 L 11.28125 -15.125 L 11.28125 0 L 6.234375 0 Z M 16 -17.921875 C 22.1875 -17.921875 25.28125 -21.703125 25.28125 -29.265625 C 25.28125 -32.984375 24.484375 -35.738281 22.890625 -37.53125 C 21.296875 -39.320312 19.019531 -40.21875 16.0625 -40.21875 L 11.28125 -40.21875 L 11.28125 -17.921875 Z M 16 -17.921875 "/></g></g><g style="fill:#ffffff;fill-opacity:1;"><g transform="translate(156.678545, 182.593905)"><path style="stroke:none" d="M 7.359375 -39.875 C 6.566406 -39.875 5.925781 -40.117188 5.4375 -40.609375 C 4.863281 -41.179688 4.578125 -41.890625 4.578125 -42.734375 C 4.578125 -43.578125 4.863281 -44.285156 5.4375 -44.859375 C 5.925781 -45.347656 6.566406 -45.59375 7.359375 -45.59375 C 8.203125 -45.59375 8.867188 -45.367188 9.359375 -44.921875 C 9.890625 -44.347656 10.15625 -43.617188 10.15625 -42.734375 C 10.15625 -41.941406 9.890625 -41.234375 9.359375 -40.609375 C 8.734375 -40.117188 8.066406 -39.875 7.359375 -39.875 Z M 4.90625 0 L 4.90625 -33.171875 L 9.75 -33.171875 L 9.75 0 Z M 4.90625 0 "/></g></g><g style="fill:#ffffff;fill-opacity:1;"><g transform="translate(170.08234, 182.593905)"><path style="stroke:none" d="M 16.59375 0.65625 C 11.988281 0.65625 8.476562 -0.84375 6.0625 -3.84375 C 3.65625 -6.851562 2.453125 -11.101562 2.453125 -16.59375 C 2.453125 -22.070312 3.65625 -26.316406 6.0625 -29.328125 C 8.476562 -32.335938 11.988281 -33.84375 16.59375 -33.84375 C 21.1875 -33.84375 24.6875 -32.335938 27.09375 -29.328125 C 29.507812 -26.316406 30.71875 -22.070312 30.71875 -16.59375 C 30.71875 -11.144531 29.488281 -6.90625 27.03125 -3.875 C 24.582031 -0.851562 21.101562 0.65625 16.59375 0.65625 Z M 16.59375 -2.25 C 19.6875 -2.25 21.960938 -3.429688 23.421875 -5.796875 C 24.878906 -8.171875 25.609375 -11.769531 25.609375 -16.59375 C 25.609375 -21.363281 24.878906 -24.941406 23.421875 -27.328125 C 21.960938 -29.722656 19.6875 -30.921875 16.59375 -30.921875 C 13.488281 -30.921875 11.207031 -29.738281 9.75 -27.375 C 8.289062 -25.007812 7.5625 -21.414062 7.5625 -16.59375 C 7.5625 -11.769531 8.289062 -8.171875 9.75 -5.796875 C 11.207031 -3.429688 13.488281 -2.25 16.59375 -2.25 Z M 16.59375 -2.25 "/></g></g><g style="fill:#ffffff;fill-opacity:1;"><g transform="translate(201.999562, 182.593905)"><path style="stroke:none" d="M 4.984375 -33.171875 L 8.953125 -33.171875 L 9.5625 -30 C 10.269531 -30.832031 11.375 -31.679688 12.875 -32.546875 C 14.375 -33.410156 16.539062 -33.84375 19.375 -33.84375 C 22.5625 -33.84375 25.039062 -32.945312 26.8125 -31.15625 C 28.582031 -29.363281 29.46875 -26.695312 29.46875 -23.15625 L 29.46875 0 L 24.625 0 L 24.625 -22.15625 C 24.625 -24.988281 24.046875 -27.054688 22.890625 -28.359375 C 21.742188 -29.671875 20.039062 -30.328125 17.78125 -30.328125 C 16.1875 -30.328125 14.789062 -30.082031 13.59375 -29.59375 C 12.40625 -29.101562 11.46875 -28.570312 10.78125 -28 C 10.09375 -27.425781 9.75 -27.097656 9.75 -27.015625 L 9.75 0 L 4.984375 0 Z M 4.984375 -33.171875 "/></g></g><g style="fill:#ffffff;fill-opacity:1;"><g transform="translate(234.646703, 182.593905)"><path style="stroke:none" d="M 7.96875 0.59375 C 7.207031 0.59375 6.519531 0.328125 5.90625 -0.203125 C 5.289062 -0.773438 4.984375 -1.523438 4.984375 -2.453125 C 4.984375 -3.378906 5.289062 -4.132812 5.90625 -4.71875 C 6.519531 -5.25 7.207031 -5.515625 7.96875 -5.515625 C 8.800781 -5.515625 9.507812 -5.25 10.09375 -4.71875 C 10.664062 -4.132812 10.953125 -3.378906 10.953125 -2.453125 C 10.953125 -1.523438 10.664062 -0.773438 10.09375 -0.203125 C 9.46875 0.328125 8.757812 0.59375 7.96875 0.59375 Z M 7.96875 0.59375 "/></g></g><g style="fill:#ffffff;fill-opacity:1;"><g transform="translate(249.443989, 182.593905)"><path style="stroke:none" d="M 15.796875 0.65625 C 11.765625 0.65625 8.53125 -0.78125 6.09375 -3.65625 C 3.664062 -6.53125 2.453125 -10.53125 2.453125 -15.65625 C 2.453125 -21.1875 3.632812 -25.597656 6 -28.890625 C 8.375 -32.191406 11.707031 -33.84375 16 -33.84375 C 17.8125 -33.84375 19.332031 -33.609375 20.5625 -33.140625 C 21.800781 -32.679688 22.753906 -32.175781 23.421875 -31.625 C 24.085938 -31.070312 24.421875 -30.75 24.421875 -30.65625 L 24.484375 -30.65625 L 24.484375 -49.640625 L 29.265625 -49.90625 L 29.265625 0 L 25.15625 0 L 24.625 -3.921875 C 24.132812 -2.941406 23.179688 -1.929688 21.765625 -0.890625 C 20.347656 0.140625 18.359375 0.65625 15.796875 0.65625 Z M 16.859375 -2.59375 C 18.453125 -2.59375 19.820312 -2.929688 20.96875 -3.609375 C 22.113281 -4.296875 22.984375 -5.035156 23.578125 -5.828125 C 24.179688 -6.628906 24.484375 -7.097656 24.484375 -7.234375 L 24.484375 -27.609375 C 24.484375 -27.691406 24.179688 -28 23.578125 -28.53125 C 22.984375 -29.0625 22.164062 -29.546875 21.125 -29.984375 C 20.09375 -30.429688 18.867188 -30.65625 17.453125 -30.65625 C 14.046875 -30.65625 11.546875 -29.40625 9.953125 -26.90625 C 8.359375 -24.40625 7.5625 -20.703125 7.5625 -15.796875 C 7.5625 -11.148438 8.347656 -7.785156 9.921875 -5.703125 C 11.492188 -3.628906 13.804688 -2.59375 16.859375 -2.59375 Z M 16.859375 -2.59375 "/></g></g><g style="fill:#ffffff;fill-opacity:1;"><g transform="translate(282.356562, 182.593905)"><path style="stroke:none" d="M 16.65625 0.65625 C 12.226562 0.65625 8.753906 -0.722656 6.234375 -3.484375 C 3.710938 -6.242188 2.453125 -10.390625 2.453125 -15.921875 C 2.453125 -21.492188 3.664062 -25.875 6.09375 -29.0625 C 8.53125 -32.25 11.851562 -33.84375 16.0625 -33.84375 C 19.863281 -33.84375 22.789062 -32.523438 24.84375 -29.890625 C 26.90625 -27.265625 27.9375 -23.539062 27.9375 -18.71875 C 27.9375 -17.875 27.890625 -17.1875 27.796875 -16.65625 C 27.710938 -16.125 27.648438 -15.789062 27.609375 -15.65625 L 7.5 -15.65625 C 7.5 -6.71875 10.726562 -2.25 17.1875 -2.25 C 18.957031 -2.25 20.472656 -2.570312 21.734375 -3.21875 C 22.992188 -3.863281 23.976562 -4.550781 24.6875 -5.28125 C 25.394531 -6.007812 25.75 -6.4375 25.75 -6.5625 L 27.671875 -4.984375 C 27.671875 -4.804688 27.25 -4.238281 26.40625 -3.28125 C 25.570312 -2.332031 24.332031 -1.4375 22.6875 -0.59375 C 21.050781 0.238281 19.039062 0.65625 16.65625 0.65625 Z M 23.421875 -18.453125 L 23.484375 -19.703125 C 23.484375 -27.222656 21.007812 -30.984375 16.0625 -30.984375 C 13.445312 -30.984375 11.429688 -29.953125 10.015625 -27.890625 C 8.597656 -25.835938 7.78125 -22.691406 7.5625 -18.453125 Z M 23.421875 -18.453125 "/></g></g><g style="fill:#ffffff;fill-opacity:1;"><g transform="translate(311.088675, 182.593905)"><path style="stroke:none" d="M 12.203125 0 L 0.859375 -33.171875 L 6.5625 -33.171875 L 15.203125 -5.25 L 24.359375 -33.171875 L 28 -33.171875 L 16.59375 0 Z M 12.203125 0 "/></g></g><g style="fill:#ffffff;fill-opacity:1;"><g transform="translate(338.639418, 182.593905)"><path style="stroke:none" d=""/></g></g><g clip-rule="nonzero" clip-path="url(#9e03f3e8d1)"><path style=" stroke:none;fill-rule:nonzero;fill:#ffffff;fill-opacity:1;" d="M 46.886719 181.910156 C 46.644531 181.910156 46.410156 181.863281 46.1875 181.773438 C 45.960938 181.683594 45.761719 181.554688 45.589844 181.386719 C 45.417969 181.21875 45.285156 181.027344 45.191406 180.808594 C 45.097656 180.589844 45.054688 180.363281 45.054688 180.125 C 45.054688 179.886719 45.097656 179.660156 45.191406 179.441406 C 45.285156 179.222656 45.417969 179.03125 45.589844 178.863281 C 45.761719 178.695312 45.960938 178.566406 46.1875 178.476562 C 46.410156 178.382812 46.644531 178.339844 46.886719 178.339844 L 63.148438 178.339844 C 63.390625 178.339844 63.625 178.382812 63.851562 178.476562 C 64.074219 178.566406 64.273438 178.695312 64.445312 178.863281 C 64.617188 179.03125 64.75 179.222656 64.84375 179.441406 C 64.9375 179.660156 64.984375 179.886719 64.984375 180.125 C 64.984375 180.363281 64.9375 180.589844 64.84375 180.808594 C 64.75 181.027344 64.617188 181.21875 64.445312 181.386719 C 64.273438 181.554688 64.074219 181.683594 63.851562 181.773438 C 63.625 181.863281 63.390625 181.910156 63.148438 181.910156 Z M 29.449219 156.675781 C 29.269531 156.519531 29.128906 156.335938 29.023438 156.125 C 28.917969 155.914062 28.855469 155.691406 28.839844 155.460938 C 28.828125 155.226562 28.855469 155 28.933594 154.777344 C 29.011719 154.554688 29.128906 154.355469 29.285156 154.179688 C 29.445312 154.003906 29.628906 153.863281 29.84375 153.761719 C 30.058594 153.660156 30.285156 153.597656 30.523438 153.585938 C 30.761719 153.570312 30.996094 153.601562 31.222656 153.675781 C 31.449219 153.75 31.652344 153.867188 31.828125 154.019531 L 46.265625 166.421875 C 46.445312 166.574219 46.589844 166.757812 46.695312 166.96875 C 46.800781 167.175781 46.863281 167.398438 46.878906 167.632812 C 46.894531 167.867188 46.867188 168.09375 46.792969 168.316406 C 46.714844 168.539062 46.597656 168.738281 46.441406 168.914062 C 46.382812 168.976562 46.316406 169.035156 46.25 169.089844 L 31.828125 181.472656 C 31.652344 181.625 31.449219 181.742188 31.222656 181.816406 C 30.996094 181.894531 30.761719 181.921875 30.523438 181.910156 C 30.285156 181.894531 30.058594 181.835938 29.84375 181.730469 C 29.628906 181.628906 29.445312 181.488281 29.285156 181.3125 C 29.128906 181.136719 29.011719 180.9375 28.933594 180.714844 C 28.855469 180.496094 28.828125 180.265625 28.839844 180.035156 C 28.855469 179.800781 28.917969 179.578125 29.023438 179.367188 C 29.128906 179.15625 29.269531 178.972656 29.449219 178.820312 L 42.351562 167.746094 Z M 29.449219 156.675781 "/></g><g clip-rule="nonzero" clip-path="url(#1325d9234c)"><path style=" stroke:none;fill-rule:nonzero;fill:#f46530;fill-opacity:1;" d="M 44.125 181.910156 C 43.882812 181.910156 43.648438 181.863281 43.421875 181.773438 C 43.199219 181.683594 43 181.554688 42.828125 181.386719 C 42.65625 181.21875 42.523438 181.027344 42.429688 180.808594 C 42.335938 180.589844 42.289062 180.363281 42.289062 180.125 C 42.289062 179.886719 42.335938 179.660156 42.429688 179.441406 C 42.523438 179.222656 42.65625 179.03125 42.828125 178.863281 C 43 178.695312 43.199219 178.566406 43.421875 178.476562 C 43.648438 178.382812 43.882812 178.339844 44.125 178.339844 L 60.382812 178.339844 C 60.628906 178.339844 60.863281 178.382812 61.085938 178.476562 C 61.3125 178.566406 61.511719 178.695312 61.683594 178.863281 C 61.855469 179.03125 61.988281 179.222656 62.082031 179.441406 C 62.171875 179.660156 62.21875 179.886719 62.21875 180.125 C 62.21875 180.363281 62.171875 180.589844 62.082031 180.808594 C 61.988281 181.027344 61.855469 181.21875 61.683594 181.386719 C 61.511719 181.554688 61.3125 181.683594 61.085938 181.773438 C 60.863281 181.863281 60.628906 181.910156 60.382812 181.910156 Z M 26.683594 156.675781 C 26.503906 156.519531 26.363281 156.335938 26.257812 156.125 C 26.152344 155.914062 26.09375 155.691406 26.078125 155.460938 C 26.0625 155.226562 26.09375 155 26.171875 154.777344 C 26.246094 154.554688 26.363281 154.355469 26.523438 154.179688 C 26.679688 154.003906 26.867188 153.863281 27.082031 153.761719 C 27.296875 153.660156 27.523438 153.597656 27.761719 153.585938 C 28 153.570312 28.230469 153.601562 28.457031 153.675781 C 28.683594 153.75 28.886719 153.867188 29.066406 154.019531 L 43.5 166.421875 C 43.679688 166.574219 43.824219 166.757812 43.929688 166.96875 C 44.039062 167.175781 44.097656 167.398438 44.117188 167.632812 C 44.132812 167.867188 44.101562 168.09375 44.027344 168.316406 C 43.953125 168.539062 43.835938 168.738281 43.679688 168.914062 C 43.617188 168.976562 43.554688 169.035156 43.484375 169.089844 L 29.066406 181.472656 C 28.886719 181.625 28.683594 181.742188 28.457031 181.816406 C 28.230469 181.894531 28 181.921875 27.761719 181.910156 C 27.523438 181.894531 27.296875 181.835938 27.082031 181.730469 C 26.867188 181.628906 26.679688 181.488281 26.523438 181.3125 C 26.363281 181.136719 26.246094 180.9375 26.171875 180.714844 C 26.09375 180.496094 26.0625 180.265625 26.078125 180.035156 C 26.09375 179.800781 26.152344 179.578125 26.257812 179.367188 C 26.363281 179.15625 26.503906 178.972656 26.683594 178.820312 L 39.589844 167.746094 Z M 26.683594 156.675781 "/></g><g clip-rule="nonzero" clip-path="url(#1933571e23)"><path style=" stroke:none;fill-rule:evenodd;fill:#f46530;fill-opacity:1;" d="M 163.871094 136.890625 C 161.496094 136.890625 159.566406 138.816406 159.566406 141.195312 C 159.566406 143.570312 161.496094 145.5 163.871094 145.5 C 166.25 145.5 168.175781 143.570312 168.175781 141.195312 C 168.175781 138.816406 166.25 136.890625 163.871094 136.890625 Z M 164.394531 139.421875 C 164.394531 139.632812 164.265625 139.820312 164.082031 139.898438 L 164.082031 140.671875 L 164.5 140.671875 C 164.84375 140.671875 165.125 140.953125 165.125 141.300781 L 165.125 141.550781 C 165.308594 141.632812 165.4375 141.816406 165.4375 142.027344 C 165.4375 142.316406 165.203125 142.550781 164.917969 142.550781 C 164.628906 142.550781 164.394531 142.316406 164.394531 142.027344 C 164.394531 141.816406 164.523438 141.632812 164.707031 141.550781 L 164.707031 141.300781 C 164.707031 141.183594 164.613281 141.089844 164.5 141.089844 L 164.082031 141.089844 L 164.082031 142.488281 C 164.265625 142.570312 164.394531 142.753906 164.394531 142.96875 C 164.394531 143.257812 164.160156 143.488281 163.871094 143.488281 C 163.585938 143.488281 163.351562 143.257812 163.351562 142.96875 C 163.351562 142.753906 163.480469 142.570312 163.664062 142.488281 L 163.664062 140.777344 L 163.246094 140.777344 C 163.132812 140.777344 163.039062 140.871094 163.039062 140.984375 L 163.039062 141.238281 C 163.222656 141.320312 163.351562 141.503906 163.351562 141.714844 C 163.351562 142.003906 163.117188 142.238281 162.828125 142.238281 C 162.539062 142.238281 162.308594 142.003906 162.308594 141.714844 C 162.308594 141.503906 162.4375 141.320312 162.621094 141.238281 L 162.621094 140.984375 C 162.621094 140.640625 162.902344 140.359375 163.246094 140.359375 L 163.664062 140.359375 L 163.664062 139.898438 C 163.480469 139.820312 163.351562 139.632812 163.351562 139.421875 C 163.351562 139.132812 163.585938 138.898438 163.871094 138.898438 C 164.160156 138.898438 164.394531 139.132812 164.394531 139.421875 Z M 164.394531 139.421875 "/></g><g clip-rule="nonzero" clip-path="url(#8dfd8db11a)"><path style=" stroke:none;fill-rule:evenodd;fill:#f46530;fill-opacity:1;" d="M 243.859375 176.917969 C 241.480469 176.917969 239.554688 178.847656 239.554688 181.222656 C 239.554688 183.601562 241.480469 185.527344 243.859375 185.527344 C 246.238281 185.527344 248.164062 183.601562 248.164062 181.222656 C 248.164062 178.847656 246.238281 176.917969 243.859375 176.917969 Z M 244.382812 179.449219 C 244.382812 179.664062 244.253906 179.847656 244.070312 179.925781 L 244.070312 180.703125 L 244.484375 180.703125 C 244.832031 180.703125 245.113281 180.980469 245.113281 181.328125 L 245.113281 181.578125 C 245.296875 181.660156 245.425781 181.84375 245.425781 182.058594 C 245.425781 182.347656 245.191406 182.578125 244.902344 182.578125 C 244.613281 182.578125 244.382812 182.347656 244.382812 182.058594 C 244.382812 181.84375 244.511719 181.660156 244.695312 181.578125 L 244.695312 181.328125 C 244.695312 181.210938 244.601562 181.117188 244.484375 181.117188 L 244.070312 181.117188 L 244.070312 182.519531 C 244.253906 182.597656 244.382812 182.78125 244.382812 182.996094 C 244.382812 183.285156 244.148438 183.519531 243.859375 183.519531 C 243.570312 183.519531 243.339844 183.285156 243.339844 182.996094 C 243.339844 182.78125 243.464844 182.597656 243.652344 182.519531 L 243.652344 180.804688 L 243.234375 180.804688 C 243.117188 180.804688 243.023438 180.898438 243.023438 181.015625 L 243.023438 181.265625 C 243.210938 181.347656 243.339844 181.53125 243.339844 181.746094 C 243.339844 182.03125 243.105469 182.265625 242.816406 182.265625 C 242.527344 182.265625 242.292969 182.03125 242.292969 181.746094 C 242.292969 181.53125 242.421875 181.347656 242.609375 181.265625 L 242.609375 181.015625 C 242.609375 180.667969 242.886719 180.386719 243.234375 180.386719 L 243.652344 180.386719 L 243.652344 179.925781 C 243.464844 179.847656 243.339844 179.664062 243.339844 179.449219 C 243.339844 179.160156 243.570312 178.925781 243.859375 178.925781 C 244.148438 178.925781 244.382812 179.160156 244.382812 179.449219 Z M 244.382812 179.449219 "/></g></g></svg>