<svg xmlns="http://www.w3.org/2000/svg" xmlns:xlink="http://www.w3.org/1999/xlink" width="500" zoomAndPan="magnify" viewBox="0 0 375 374.999991" height="500" preserveAspectRatio="xMidYMid meet" version="1.2"><defs><clipPath id="6a60e56206"><path d="M 39.199219 104.160156 L 156.746094 104.160156 L 156.746094 341 L 39.199219 341 Z M 39.199219 104.160156 "/></clipPath><clipPath id="1145e14e6e"><path d="M 72.035156 245.046875 L 125 245.046875 L 125 340 L 72.035156 340 Z M 72.035156 245.046875 "/></clipPath><clipPath id="c479251d6f"><path d="M 72.035156 245.046875 L 125 245.046875 L 125 340.203125 L 72.035156 340.203125 Z M 72.035156 245.046875 "/></clipPath><clipPath id="08499809b4"><path d="M 217.246094 104.160156 L 334.792969 104.160156 L 334.792969 341 L 217.246094 341 Z M 217.246094 104.160156 "/></clipPath><clipPath id="fa8aaab044"><path d="M 250.078125 245.046875 L 303 245.046875 L 303 340 L 250.078125 340 Z M 250.078125 245.046875 "/></clipPath><clipPath id="fd4bc0a4d0"><path d="M 250.078125 245.046875 L 303 245.046875 L 303 340.203125 L 250.078125 340.203125 Z M 250.078125 245.046875 "/></clipPath><clipPath id="876d61471c"><path d="M 98.476562 5.546875 L 280 5.546875 L 280 369 L 98.476562 369 Z M 98.476562 5.546875 "/></clipPath><clipPath id="38308bb4ef"><path d="M 148.503906 220.207031 L 229 220.207031 L 229 365 L 148.503906 365 Z M 148.503906 220.207031 "/></clipPath><clipPath id="6bcbae51f3"><path d="M 208 166.953125 L 215 166.953125 L 215 173 L 208 173 Z M 208 166.953125 "/></clipPath><clipPath id="d29dcba57b"><path d="M 196 166.953125 L 203 166.953125 L 203 173 L 196 173 Z M 196 166.953125 "/></clipPath><clipPath id="de167772c3"><path d="M 185 166.953125 L 192 166.953125 L 192 173 L 185 173 Z M 185 166.953125 "/></clipPath><clipPath id="2ff580449c"><path d="M 161.484375 190 L 168 190 L 168 197 L 161.484375 197 Z M 161.484375 190 "/></clipPath><clipPath id="ee5523d3c1"><path d="M 161.484375 202 L 168 202 L 168 209 L 161.484375 209 Z M 161.484375 202 "/></clipPath><clipPath id="97b8244248"><path d="M 161.484375 214 L 168 214 L 168 220.128906 L 161.484375 220.128906 Z M 161.484375 214 "/></clipPath><clipPath id="0f0a1d1ca2"><path d="M 173 214 L 180 214 L 180 220.128906 L 173 220.128906 Z M 173 214 "/></clipPath></defs><g id="4c210593f5"><path style=" stroke:none;fill-rule:nonzero;fill:#2a2e30;fill-opacity:1;" d="M 107.101562 119.851562 L 88.832031 119.851562 L 88.832031 115.011719 C 88.832031 109.96875 92.925781 105.875 97.96875 105.875 C 103.011719 105.875 107.101562 109.96875 107.101562 115.011719 Z M 116.292969 140.710938 C 116.382812 140.273438 116.433594 127.167969 116.433594 126.703125 C 116.433594 122.984375 113.421875 119.972656 109.703125 119.972656 L 86.222656 119.972656 C 82.503906 119.972656 79.496094 122.984375 79.496094 126.703125 C 79.496094 127.230469 79.558594 140.398438 79.671875 140.890625 M 133.738281 128.378906 C 128.796875 128.378906 124.792969 132.382812 124.792969 137.324219 C 124.792969 132.382812 120.792969 128.378906 115.851562 128.378906 C 110.914062 128.378906 106.910156 132.382812 106.910156 137.324219 C 106.910156 132.382812 102.90625 128.378906 97.96875 128.378906 C 93.027344 128.378906 89.023438 132.382812 89.023438 137.324219 C 89.023438 132.382812 85.023438 128.378906 80.082031 128.378906 C 75.144531 128.378906 71.140625 132.382812 71.140625 137.324219 C 71.140625 132.382812 67.136719 128.378906 62.199219 128.378906 L 75.261719 182.027344 L 120.121094 182.027344 Z M 127.648438 281.863281 L 67.757812 281.863281 C 67.757812 291.492188 62.738281 300.660156 56.003906 307.054688 L 48.445312 314.222656 C 46.144531 315.679688 44.730469 318.324219 44.730469 321.191406 C 44.730469 325.664062 48.125 329.289062 52.308594 329.285156 L 143.625 329.242188 C 147.808594 329.242188 151.195312 325.617188 151.195312 321.148438 L 151.195312 321.144531 C 151.195312 318.285156 149.785156 315.636719 147.484375 314.175781 L 138.441406 305.769531 C 132 299.777344 128.691406 291.25 128.238281 282.132812 Z M 155.277344 334.257812 C 155.277344 331.507812 153.050781 329.285156 150.300781 329.285156 L 45.625 329.285156 C 42.878906 329.285156 40.652344 331.507812 40.652344 334.257812 C 40.652344 337.003906 42.878906 339.230469 45.625 339.230469 L 150.300781 339.230469 C 153.050781 339.230469 155.277344 337.003906 155.277344 334.257812 Z M 122.605469 281.863281 L 117.71875 205.683594 L 78.210938 205.683594 L 73.324219 281.863281 Z M 133.824219 200.261719 C 133.824219 196.898438 131.097656 194.171875 127.734375 194.171875 L 68.195312 194.171875 C 64.832031 194.171875 62.105469 196.898438 62.105469 200.261719 C 62.105469 203.625 64.832031 206.351562 68.195312 206.351562 L 127.734375 206.351562 C 131.097656 206.347656 133.824219 203.621094 133.824219 200.261719 Z M 129.832031 188.082031 C 129.832031 184.71875 127.105469 181.992188 123.742188 181.992188 L 72.1875 181.992188 C 68.820312 181.992188 66.097656 184.71875 66.097656 188.082031 C 66.097656 191.449219 68.820312 194.171875 72.1875 194.171875 L 123.738281 194.171875 C 127.105469 194.171875 129.832031 191.441406 129.832031 188.082031 Z M 129.832031 188.082031 "/><g clip-rule="nonzero" clip-path="url(#6a60e56206)"><path style=" stroke:none;fill-rule:nonzero;fill:#ffffff;fill-opacity:1;" d="M 82.214844 166.089844 C 82.425781 166.863281 81.964844 167.664062 81.1875 167.867188 C 81.058594 167.902344 80.929688 167.921875 80.808594 167.921875 C 80.171875 167.921875 79.582031 167.492188 79.410156 166.847656 L 75.261719 151.394531 C 75.050781 150.625 75.511719 149.820312 76.289062 149.617188 C 77.066406 149.410156 77.863281 149.867188 78.066406 150.648438 Z M 156.730469 334.257812 C 156.730469 337.800781 153.847656 340.683594 150.300781 340.683594 L 45.625 340.683594 C 42.082031 340.683594 39.199219 337.800781 39.199219 334.257812 C 39.199219 330.714844 42.082031 327.832031 45.625 327.832031 L 45.832031 327.832031 C 44.191406 326.042969 43.285156 323.6875 43.285156 321.191406 C 43.285156 317.902344 44.910156 314.808594 47.550781 313.078125 L 55.011719 306 C 62.085938 299.285156 66.3125 290.265625 66.3125 281.863281 C 66.3125 281.0625 66.960938 280.410156 67.765625 280.410156 L 71.972656 280.410156 L 76.625 207.804688 L 68.195312 207.804688 C 64.035156 207.804688 60.652344 204.421875 60.652344 200.261719 C 60.652344 196.710938 63.117188 193.738281 66.421875 192.941406 C 65.3125 191.628906 64.644531 189.9375 64.644531 188.082031 C 64.644531 183.921875 68.027344 180.542969 72.1875 180.542969 L 73.390625 180.542969 L 60.78125 128.722656 C 60.675781 128.289062 60.773438 127.835938 61.046875 127.480469 C 61.320312 127.132812 61.746094 126.921875 62.191406 126.921875 C 65.992188 126.921875 69.320312 128.972656 71.132812 132.023438 C 72.621094 129.527344 75.125 127.699219 78.066406 127.121094 C 78.0625 126.980469 78.042969 126.839844 78.042969 126.703125 C 78.042969 122.191406 81.714844 118.519531 86.222656 118.519531 L 87.375 118.519531 L 87.375 115.011719 C 87.378906 109.171875 92.128906 104.425781 97.96875 104.425781 C 103.808594 104.425781 108.554688 109.171875 108.554688 115.011719 L 108.554688 118.519531 L 109.703125 118.519531 C 114.214844 118.519531 117.886719 122.191406 117.886719 126.703125 C 117.886719 126.839844 117.875 126.980469 117.863281 127.121094 C 120.808594 127.699219 123.308594 129.527344 124.792969 132.023438 C 126.605469 128.972656 129.9375 126.921875 133.738281 126.921875 C 134.183594 126.921875 134.609375 127.132812 134.882812 127.484375 C 135.15625 127.839844 135.253906 128.300781 135.144531 128.734375 L 121.988281 180.542969 L 123.742188 180.542969 C 127.902344 180.542969 131.285156 183.921875 131.285156 188.082031 C 131.285156 189.929688 130.609375 191.628906 129.507812 192.941406 C 132.8125 193.742188 135.277344 196.71875 135.277344 200.261719 C 135.277344 204.421875 131.894531 207.804688 127.734375 207.804688 L 119.308594 207.804688 L 123.964844 280.410156 L 127.648438 280.410156 C 127.851562 280.410156 128.054688 280.457031 128.246094 280.539062 L 128.839844 280.808594 C 129.339844 281.035156 129.664062 281.515625 129.691406 282.0625 C 130.144531 291.242188 133.601562 299.285156 139.429688 304.707031 L 148.378906 313.027344 C 151.015625 314.757812 152.648438 317.855469 152.648438 321.144531 C 152.648438 323.746094 151.65625 326.109375 150.058594 327.835938 L 150.308594 327.835938 C 153.847656 327.832031 156.730469 330.714844 156.730469 334.257812 Z M 90.285156 118.398438 L 105.648438 118.398438 L 105.648438 115.011719 C 105.648438 110.773438 102.203125 107.328125 97.96875 107.328125 C 93.730469 107.328125 90.285156 110.773438 90.285156 115.011719 Z M 80.949219 126.703125 C 80.949219 126.789062 80.960938 126.875 80.964844 126.96875 C 84.394531 127.257812 87.351562 129.21875 89.023438 132.03125 C 90.839844 128.980469 94.167969 126.929688 97.96875 126.929688 C 101.765625 126.929688 105.097656 128.980469 106.910156 132.03125 C 108.582031 129.21875 111.539062 127.257812 114.96875 126.96875 C 114.976562 126.882812 114.980469 126.792969 114.980469 126.703125 C 114.980469 123.789062 112.617188 121.425781 109.703125 121.425781 L 86.222656 121.425781 C 83.320312 121.425781 80.949219 123.789062 80.949219 126.703125 Z M 76.382812 180.542969 L 118.988281 180.542969 L 131.808594 130.082031 C 128.613281 130.9375 126.246094 133.859375 126.246094 137.324219 C 126.246094 138.125 125.597656 138.777344 124.792969 138.777344 C 123.992188 138.777344 123.34375 138.125 123.34375 137.324219 C 123.34375 133.191406 119.984375 129.832031 115.851562 129.832031 C 111.722656 129.832031 108.363281 133.191406 108.363281 137.324219 C 108.363281 138.125 107.710938 138.777344 106.910156 138.777344 C 106.109375 138.777344 105.457031 138.125 105.457031 137.324219 C 105.457031 133.191406 102.097656 129.832031 97.96875 129.832031 C 93.835938 129.832031 90.476562 133.191406 90.476562 137.324219 C 90.476562 138.125 89.828125 138.777344 89.023438 138.777344 C 88.222656 138.777344 87.574219 138.125 87.574219 137.324219 C 87.574219 133.191406 84.214844 129.832031 80.082031 129.832031 C 75.953125 129.832031 72.59375 133.191406 72.59375 137.324219 C 72.59375 138.125 71.941406 138.777344 71.140625 138.777344 C 70.339844 138.777344 69.6875 138.125 69.6875 137.324219 C 69.6875 133.855469 67.316406 130.925781 64.105469 130.078125 Z M 67.550781 188.082031 C 67.550781 190.640625 69.628906 192.71875 72.1875 192.71875 L 123.742188 192.71875 C 126.300781 192.71875 128.378906 190.640625 128.378906 188.082031 C 128.378906 185.527344 126.300781 183.445312 123.742188 183.445312 L 120.425781 183.445312 C 120.328125 183.46875 120.222656 183.480469 120.117188 183.480469 L 75.253906 183.480469 C 75.148438 183.480469 75.046875 183.464844 74.945312 183.445312 L 72.191406 183.445312 C 69.628906 183.445312 67.550781 185.527344 67.550781 188.082031 Z M 68.195312 204.894531 L 127.734375 204.894531 C 130.292969 204.894531 132.371094 202.8125 132.371094 200.257812 C 132.371094 197.699219 130.292969 195.621094 127.734375 195.621094 L 68.195312 195.621094 C 65.636719 195.621094 63.558594 197.699219 63.558594 200.257812 C 63.558594 202.820312 65.636719 204.894531 68.195312 204.894531 Z M 74.875 280.410156 L 121.050781 280.410156 L 116.398438 207.804688 L 79.53125 207.804688 Z M 52.308594 327.832031 L 143.625 327.789062 C 147.003906 327.789062 149.746094 324.808594 149.746094 321.148438 C 149.746094 318.789062 148.582031 316.59375 146.707031 315.402344 C 146.628906 315.355469 146.558594 315.296875 146.496094 315.238281 L 137.457031 306.832031 C 131.308594 301.113281 127.570312 292.800781 126.863281 283.316406 L 69.175781 283.316406 C 68.742188 292.171875 64.359375 301.132812 57.003906 308.109375 L 49.445312 315.28125 C 49.375 315.34375 49.300781 315.402344 49.222656 315.453125 C 47.351562 316.640625 46.183594 318.84375 46.183594 321.191406 C 46.183594 322.984375 46.835938 324.664062 48.015625 325.925781 C 49.164062 327.152344 50.695312 327.832031 52.308594 327.832031 Z M 153.824219 334.257812 C 153.824219 332.316406 152.242188 330.734375 150.300781 330.734375 L 52.308594 330.734375 C 52.308594 330.734375 52.308594 330.734375 52.304688 330.734375 L 45.621094 330.734375 C 43.679688 330.734375 42.101562 332.316406 42.101562 334.257812 C 42.101562 336.199219 43.679688 337.777344 45.621094 337.777344 L 150.296875 337.777344 C 152.242188 337.777344 153.824219 336.199219 153.824219 334.257812 Z M 153.824219 334.257812 "/></g><g clip-rule="nonzero" clip-path="url(#1145e14e6e)"><path style=" stroke:none;fill-rule:nonzero;fill:#ffffff;fill-opacity:1;" d="M 87.210938 275.890625 C 83.515625 272.691406 81.195312 267.945312 81.265625 262.660156 C 81.382812 253.269531 89.152344 245.640625 98.542969 245.679688 C 108.007812 245.722656 115.664062 253.410156 115.664062 262.882812 C 115.664062 267.933594 113.460938 272.746094 109.992188 275.894531 Z M 115.582031 278.789062 C 115.582031 277.183594 114.28125 275.882812 112.675781 275.882812 L 84.25 275.882812 C 82.644531 275.882812 81.34375 277.183594 81.34375 278.789062 C 81.34375 280.394531 82.644531 281.699219 84.25 281.699219 L 112.675781 281.699219 C 114.28125 281.699219 115.582031 280.394531 115.582031 278.789062 Z M 108.03125 312.976562 L 106.136719 281.699219 L 90.789062 281.699219 L 88.894531 312.976562 Z M 111.652344 312.976562 L 85.273438 312.976562 L 85.273438 319.753906 L 74.765625 327.464844 C 73.667969 328.113281 72.992188 329.300781 72.992188 330.578125 C 72.992188 332.582031 74.613281 334.207031 76.617188 334.203125 L 120.3125 334.183594 C 122.3125 334.183594 123.933594 332.5625 123.933594 330.5625 L 123.933594 330.558594 C 123.933594 329.277344 123.257812 328.09375 122.160156 327.441406 L 111.992188 319.480469 Z M 124.277344 336.847656 C 124.277344 335.386719 123.09375 334.207031 121.636719 334.207031 L 75.289062 334.207031 C 73.832031 334.207031 72.648438 335.386719 72.648438 336.847656 C 72.648438 338.304688 73.832031 339.488281 75.289062 339.488281 L 121.636719 339.488281 C 123.09375 339.488281 124.277344 338.304688 124.277344 336.847656 Z M 124.277344 336.847656 "/></g><g clip-rule="nonzero" clip-path="url(#c479251d6f)"><path style=" stroke:none;fill-rule:nonzero;fill:#2a2e30;fill-opacity:1;" d="M 110.21875 276.476562 L 86.992188 276.476562 L 86.828125 276.335938 C 82.851562 272.894531 80.613281 267.910156 80.679688 262.652344 C 80.800781 252.925781 88.808594 245.042969 98.546875 245.09375 C 108.308594 245.140625 116.25 253.117188 116.25 262.882812 C 116.25 267.96875 114.058594 272.996094 110.386719 276.328125 Z M 87.433594 275.304688 L 109.765625 275.304688 C 113.097656 272.191406 115.078125 267.5625 115.078125 262.878906 C 115.078125 253.761719 107.660156 246.308594 98.542969 246.265625 C 89.453125 246.226562 81.964844 253.585938 81.851562 262.667969 C 81.789062 267.503906 83.820312 272.097656 87.433594 275.304688 Z M 86.394531 260.027344 C 87.296875 256.199219 90.003906 252.992188 93.636719 251.457031 C 93.933594 251.332031 94.078125 250.988281 93.949219 250.6875 C 93.824219 250.390625 93.480469 250.25 93.179688 250.375 C 89.203125 252.058594 86.238281 255.566406 85.25 259.757812 C 85.175781 260.074219 85.375 260.390625 85.6875 260.464844 C 85.730469 260.476562 85.777344 260.480469 85.820312 260.480469 C 86.089844 260.480469 86.332031 260.296875 86.394531 260.027344 Z M 88.191406 270.847656 C 88.453125 270.660156 88.519531 270.296875 88.332031 270.03125 C 87.570312 268.957031 86.992188 267.78125 86.605469 266.527344 C 86.511719 266.21875 86.183594 266.042969 85.875 266.136719 C 85.566406 266.234375 85.390625 266.558594 85.484375 266.871094 C 85.90625 268.242188 86.542969 269.535156 87.375 270.707031 C 87.488281 270.871094 87.667969 270.957031 87.851562 270.957031 C 87.96875 270.957031 88.089844 270.921875 88.191406 270.847656 Z M 112.675781 282.285156 L 84.25 282.285156 C 82.324219 282.285156 80.753906 280.71875 80.753906 278.789062 C 80.753906 276.863281 82.324219 275.296875 84.25 275.296875 L 112.675781 275.296875 C 114.601562 275.296875 116.167969 276.863281 116.167969 278.789062 C 116.167969 280.71875 114.601562 282.285156 112.675781 282.285156 Z M 84.25 276.46875 C 82.96875 276.46875 81.929688 277.511719 81.929688 278.792969 C 81.929688 280.074219 82.96875 281.113281 84.25 281.113281 L 112.675781 281.113281 C 113.957031 281.113281 114.996094 280.074219 114.996094 278.792969 C 114.996094 277.511719 113.957031 276.46875 112.675781 276.46875 Z M 108.035156 313.5625 L 88.894531 313.5625 C 88.730469 313.5625 88.578125 313.496094 88.464844 313.378906 C 88.355469 313.261719 88.296875 313.101562 88.308594 312.941406 L 90.203125 281.660156 C 90.222656 281.351562 90.480469 281.109375 90.789062 281.109375 L 106.136719 281.109375 C 106.445312 281.109375 106.703125 281.351562 106.722656 281.660156 L 108.621094 312.941406 C 108.628906 313.101562 108.574219 313.257812 108.464844 313.378906 C 108.351562 313.496094 108.195312 313.5625 108.035156 313.5625 Z M 89.515625 312.390625 L 107.410156 312.390625 L 105.582031 282.285156 L 91.339844 282.285156 Z M 76.617188 334.792969 C 75.492188 334.792969 74.4375 334.351562 73.640625 333.558594 C 72.84375 332.761719 72.40625 331.707031 72.40625 330.578125 C 72.40625 329.109375 73.1875 327.730469 74.445312 326.972656 L 84.691406 319.453125 L 84.691406 312.976562 C 84.691406 312.652344 84.953125 312.386719 85.277344 312.386719 L 111.652344 312.386719 C 111.960938 312.386719 112.21875 312.632812 112.238281 312.945312 L 112.566406 319.183594 L 122.492188 326.957031 C 123.746094 327.714844 124.519531 329.089844 124.519531 330.558594 C 124.519531 332.882812 122.632812 334.769531 120.3125 334.773438 Z M 85.859375 313.5625 L 85.859375 319.753906 C 85.859375 319.941406 85.773438 320.117188 85.621094 320.226562 L 75.113281 327.9375 C 75.097656 327.949219 75.082031 327.960938 75.066406 327.96875 C 74.148438 328.515625 73.578125 329.515625 73.578125 330.582031 C 73.578125 331.394531 73.894531 332.15625 74.46875 332.730469 C 75.042969 333.304688 75.804688 333.617188 76.617188 333.617188 L 120.3125 333.601562 C 121.988281 333.601562 123.351562 332.238281 123.351562 330.5625 C 123.351562 329.492188 122.78125 328.492188 121.863281 327.945312 C 121.839844 327.933594 121.820312 327.917969 121.796875 327.902344 L 111.632812 319.941406 C 111.5 319.835938 111.417969 319.683594 111.40625 319.511719 L 111.09375 313.5625 Z M 121.636719 340.074219 L 75.289062 340.074219 C 73.507812 340.074219 72.0625 338.625 72.0625 336.847656 C 72.0625 335.066406 73.507812 333.617188 75.289062 333.617188 L 121.636719 333.617188 C 123.417969 333.617188 124.867188 335.066406 124.867188 336.847656 C 124.867188 338.625 123.417969 340.074219 121.636719 340.074219 Z M 75.289062 334.792969 C 74.15625 334.792969 73.234375 335.714844 73.234375 336.847656 C 73.234375 337.980469 74.15625 338.898438 75.289062 338.898438 L 121.636719 338.898438 C 122.769531 338.898438 123.691406 337.980469 123.691406 336.847656 C 123.691406 335.714844 122.769531 334.792969 121.636719 334.792969 Z M 75.289062 334.792969 "/></g><path style=" stroke:none;fill-rule:nonzero;fill:#2a2e30;fill-opacity:1;" d="M 285.148438 119.851562 L 266.878906 119.851562 L 266.878906 115.011719 C 266.878906 109.96875 270.96875 105.875 276.011719 105.875 C 281.054688 105.875 285.148438 109.96875 285.148438 115.011719 Z M 294.339844 140.710938 C 294.425781 140.273438 294.480469 127.167969 294.480469 126.703125 C 294.480469 122.984375 291.46875 119.972656 287.75 119.972656 L 264.269531 119.972656 C 260.550781 119.972656 257.542969 122.984375 257.542969 126.703125 C 257.542969 127.230469 257.605469 140.398438 257.714844 140.890625 M 311.78125 128.378906 C 306.84375 128.378906 302.839844 132.382812 302.839844 137.324219 C 302.839844 132.382812 298.835938 128.378906 293.898438 128.378906 C 288.957031 128.378906 284.957031 132.382812 284.957031 137.324219 C 284.957031 132.382812 280.953125 128.378906 276.011719 128.378906 C 271.074219 128.378906 267.070312 132.382812 267.070312 137.324219 C 267.070312 132.382812 263.066406 128.378906 258.128906 128.378906 C 253.191406 128.378906 249.1875 132.382812 249.1875 137.324219 C 249.1875 132.382812 245.183594 128.378906 240.242188 128.378906 L 253.304688 182.027344 L 298.167969 182.027344 Z M 305.691406 281.863281 L 245.804688 281.863281 C 245.804688 291.492188 240.785156 300.660156 234.050781 307.054688 L 226.492188 314.222656 C 224.191406 315.679688 222.777344 318.324219 222.777344 321.191406 C 222.777344 325.664062 226.171875 329.289062 230.355469 329.285156 L 321.671875 329.242188 C 325.855469 329.242188 329.242188 325.617188 329.242188 321.148438 L 329.242188 321.144531 C 329.242188 318.285156 327.832031 315.636719 325.53125 314.175781 L 316.488281 305.769531 C 310.046875 299.777344 306.738281 291.25 306.285156 282.132812 Z M 333.320312 334.257812 C 333.320312 331.507812 331.097656 329.285156 328.347656 329.285156 L 223.671875 329.285156 C 220.925781 329.285156 218.699219 331.507812 218.699219 334.257812 C 218.699219 337.003906 220.925781 339.230469 223.671875 339.230469 L 328.347656 339.230469 C 331.097656 339.230469 333.320312 337.003906 333.320312 334.257812 Z M 300.648438 281.863281 L 295.761719 205.683594 L 256.257812 205.683594 L 251.371094 281.863281 Z M 311.871094 200.261719 C 311.871094 196.898438 309.144531 194.171875 305.78125 194.171875 L 246.242188 194.171875 C 242.875 194.171875 240.152344 196.898438 240.152344 200.261719 C 240.152344 203.625 242.875 206.351562 246.242188 206.351562 L 305.78125 206.351562 C 309.144531 206.347656 311.871094 203.621094 311.871094 200.261719 Z M 307.878906 188.082031 C 307.878906 184.71875 305.152344 181.992188 301.789062 181.992188 L 250.230469 181.992188 C 246.867188 181.992188 244.144531 184.71875 244.144531 188.082031 C 244.144531 191.449219 246.867188 194.171875 250.230469 194.171875 L 301.78125 194.171875 C 305.152344 194.171875 307.878906 191.441406 307.878906 188.082031 Z M 307.878906 188.082031 "/><g clip-rule="nonzero" clip-path="url(#08499809b4)"><path style=" stroke:none;fill-rule:nonzero;fill:#ffffff;fill-opacity:1;" d="M 260.261719 166.089844 C 260.46875 166.863281 260.011719 167.664062 259.234375 167.867188 C 259.105469 167.902344 258.976562 167.921875 258.855469 167.921875 C 258.214844 167.921875 257.628906 167.492188 257.453125 166.847656 L 253.304688 151.394531 C 253.097656 150.625 253.554688 149.820312 254.335938 149.617188 C 255.113281 149.410156 255.910156 149.867188 256.113281 150.648438 Z M 334.773438 334.257812 C 334.773438 337.800781 331.890625 340.683594 328.347656 340.683594 L 223.671875 340.683594 C 220.128906 340.683594 217.246094 337.800781 217.246094 334.257812 C 217.246094 330.714844 220.128906 327.832031 223.671875 327.832031 L 223.875 327.832031 C 222.238281 326.042969 221.332031 323.6875 221.332031 321.191406 C 221.332031 317.902344 222.957031 314.808594 225.59375 313.078125 L 233.054688 306 C 240.132812 299.285156 244.359375 290.265625 244.359375 281.863281 C 244.359375 281.0625 245.007812 280.410156 245.808594 280.410156 L 250.015625 280.410156 L 254.671875 207.804688 L 246.242188 207.804688 C 242.078125 207.804688 238.699219 204.421875 238.699219 200.261719 C 238.699219 196.710938 241.160156 193.738281 244.46875 192.941406 C 243.359375 191.628906 242.691406 189.9375 242.691406 188.082031 C 242.691406 183.921875 246.070312 180.542969 250.230469 180.542969 L 251.433594 180.542969 L 238.824219 128.722656 C 238.722656 128.289062 238.820312 127.835938 239.09375 127.480469 C 239.367188 127.132812 239.789062 126.921875 240.238281 126.921875 C 244.039062 126.921875 247.367188 128.972656 249.179688 132.023438 C 250.667969 129.527344 253.171875 127.699219 256.113281 127.121094 C 256.105469 126.980469 256.089844 126.839844 256.089844 126.703125 C 256.089844 122.191406 259.761719 118.519531 264.269531 118.519531 L 265.421875 118.519531 L 265.421875 115.011719 C 265.425781 109.171875 270.171875 104.425781 276.011719 104.425781 C 281.851562 104.425781 286.601562 109.171875 286.601562 115.011719 L 286.601562 118.519531 L 287.75 118.519531 C 292.257812 118.519531 295.929688 122.191406 295.929688 126.703125 C 295.929688 126.839844 295.917969 126.980469 295.90625 127.121094 C 298.855469 127.699219 301.351562 129.527344 302.839844 132.023438 C 304.652344 128.972656 307.980469 126.921875 311.78125 126.921875 C 312.230469 126.921875 312.652344 127.132812 312.925781 127.484375 C 313.199219 127.839844 313.300781 128.300781 313.1875 128.734375 L 300.035156 180.542969 L 301.789062 180.542969 C 305.949219 180.542969 309.332031 183.921875 309.332031 188.082031 C 309.332031 189.929688 308.65625 191.628906 307.550781 192.941406 C 310.859375 193.742188 313.320312 196.71875 313.320312 200.261719 C 313.320312 204.421875 309.941406 207.804688 305.78125 207.804688 L 297.355469 207.804688 L 302.007812 280.410156 L 305.691406 280.410156 C 305.894531 280.410156 306.101562 280.457031 306.292969 280.539062 L 306.882812 280.808594 C 307.382812 281.035156 307.710938 281.515625 307.738281 282.0625 C 308.191406 291.242188 311.648438 299.285156 317.476562 304.707031 L 326.425781 313.027344 C 329.0625 314.757812 330.695312 317.855469 330.695312 321.144531 C 330.695312 323.746094 329.703125 326.109375 328.105469 327.835938 L 328.355469 327.835938 C 331.890625 327.832031 334.773438 330.714844 334.773438 334.257812 Z M 268.332031 118.398438 L 283.695312 118.398438 L 283.695312 115.011719 C 283.695312 110.773438 280.25 107.328125 276.011719 107.328125 C 271.777344 107.328125 268.332031 110.773438 268.332031 115.011719 Z M 258.996094 126.703125 C 258.996094 126.789062 259.003906 126.875 259.011719 126.96875 C 262.441406 127.257812 265.398438 129.21875 267.070312 132.03125 C 268.882812 128.980469 272.214844 126.929688 276.011719 126.929688 C 279.8125 126.929688 283.140625 128.980469 284.957031 132.03125 C 286.628906 129.21875 289.585938 127.257812 293.015625 126.96875 C 293.019531 126.882812 293.027344 126.792969 293.027344 126.703125 C 293.027344 123.789062 290.660156 121.425781 287.75 121.425781 L 264.269531 121.425781 C 261.363281 121.425781 258.996094 123.789062 258.996094 126.703125 Z M 254.425781 180.542969 L 297.035156 180.542969 L 309.851562 130.082031 C 306.65625 130.9375 304.292969 133.859375 304.292969 137.324219 C 304.292969 138.125 303.640625 138.777344 302.839844 138.777344 C 302.039062 138.777344 301.386719 138.125 301.386719 137.324219 C 301.386719 133.191406 298.027344 129.832031 293.898438 129.832031 C 289.765625 129.832031 286.40625 133.191406 286.40625 137.324219 C 286.40625 138.125 285.757812 138.777344 284.957031 138.777344 C 284.152344 138.777344 283.503906 138.125 283.503906 137.324219 C 283.503906 133.191406 280.144531 129.832031 276.011719 129.832031 C 271.882812 129.832031 268.523438 133.191406 268.523438 137.324219 C 268.523438 138.125 267.871094 138.777344 267.070312 138.777344 C 266.269531 138.777344 265.617188 138.125 265.617188 137.324219 C 265.617188 133.191406 262.257812 129.832031 258.128906 129.832031 C 253.996094 129.832031 250.640625 133.191406 250.640625 137.324219 C 250.640625 138.125 249.988281 138.777344 249.1875 138.777344 C 248.382812 138.777344 247.734375 138.125 247.734375 137.324219 C 247.734375 133.855469 245.363281 130.925781 242.148438 130.078125 Z M 245.59375 188.082031 C 245.59375 190.640625 247.675781 192.71875 250.230469 192.71875 L 301.789062 192.71875 C 304.34375 192.71875 306.425781 190.640625 306.425781 188.082031 C 306.425781 185.527344 304.34375 183.445312 301.789062 183.445312 L 298.46875 183.445312 C 298.371094 183.46875 298.265625 183.480469 298.164062 183.480469 L 253.300781 183.480469 C 253.195312 183.480469 253.089844 183.464844 252.992188 183.445312 L 250.238281 183.445312 C 247.675781 183.445312 245.59375 185.527344 245.59375 188.082031 Z M 246.242188 204.894531 L 305.78125 204.894531 C 308.335938 204.894531 310.417969 202.8125 310.417969 200.257812 C 310.417969 197.699219 308.335938 195.621094 305.78125 195.621094 L 246.242188 195.621094 C 243.683594 195.621094 241.601562 197.699219 241.601562 200.257812 C 241.601562 202.820312 243.683594 204.894531 246.242188 204.894531 Z M 252.921875 280.410156 L 299.097656 280.410156 L 294.445312 207.804688 L 257.578125 207.804688 Z M 230.355469 327.832031 L 321.671875 327.789062 C 325.046875 327.789062 327.789062 324.808594 327.789062 321.148438 C 327.789062 318.789062 326.628906 316.59375 324.75 315.402344 C 324.675781 315.355469 324.605469 315.296875 324.542969 315.238281 L 315.5 306.832031 C 309.355469 301.113281 305.617188 292.800781 304.910156 283.316406 L 247.222656 283.316406 C 246.785156 292.171875 242.40625 301.132812 235.050781 308.109375 L 227.488281 315.28125 C 227.421875 315.34375 227.34375 315.402344 227.269531 315.453125 C 225.398438 316.640625 224.230469 318.84375 224.230469 321.191406 C 224.230469 322.984375 224.882812 324.664062 226.058594 325.925781 C 227.210938 327.152344 228.738281 327.832031 230.355469 327.832031 Z M 331.871094 334.257812 C 331.871094 332.316406 330.289062 330.734375 328.347656 330.734375 L 230.355469 330.734375 C 230.355469 330.734375 230.355469 330.734375 230.347656 330.734375 L 223.667969 330.734375 C 221.726562 330.734375 220.144531 332.316406 220.144531 334.257812 C 220.144531 336.199219 221.726562 337.777344 223.667969 337.777344 L 328.34375 337.777344 C 330.289062 337.777344 331.871094 336.199219 331.871094 334.257812 Z M 331.871094 334.257812 "/></g><g clip-rule="nonzero" clip-path="url(#fa8aaab044)"><path style=" stroke:none;fill-rule:nonzero;fill:#ffffff;fill-opacity:1;" d="M 265.253906 275.890625 C 261.5625 272.691406 259.242188 267.945312 259.308594 262.660156 C 259.425781 253.269531 267.195312 245.640625 276.589844 245.679688 C 286.050781 245.722656 293.710938 253.410156 293.710938 262.882812 C 293.710938 267.933594 291.507812 272.746094 288.039062 275.894531 Z M 293.628906 278.789062 C 293.628906 277.183594 292.328125 275.882812 290.722656 275.882812 L 262.296875 275.882812 C 260.6875 275.882812 259.386719 277.183594 259.386719 278.789062 C 259.386719 280.394531 260.6875 281.699219 262.296875 281.699219 L 290.722656 281.699219 C 292.328125 281.699219 293.628906 280.394531 293.628906 278.789062 Z M 286.078125 312.976562 L 284.179688 281.699219 L 268.835938 281.699219 L 266.9375 312.976562 Z M 289.695312 312.976562 L 263.320312 312.976562 L 263.320312 319.753906 L 252.8125 327.464844 C 251.710938 328.113281 251.035156 329.300781 251.035156 330.578125 C 251.035156 332.582031 252.660156 334.207031 254.664062 334.203125 L 298.355469 334.183594 C 300.355469 334.183594 301.980469 332.5625 301.980469 330.5625 L 301.980469 330.558594 C 301.980469 329.277344 301.304688 328.09375 300.203125 327.441406 L 290.039062 319.480469 Z M 302.324219 336.847656 C 302.324219 335.386719 301.140625 334.207031 299.683594 334.207031 L 253.335938 334.207031 C 251.875 334.207031 250.695312 335.386719 250.695312 336.847656 C 250.695312 338.304688 251.875 339.488281 253.335938 339.488281 L 299.683594 339.488281 C 301.140625 339.488281 302.324219 338.304688 302.324219 336.847656 Z M 302.324219 336.847656 "/></g><g clip-rule="nonzero" clip-path="url(#fd4bc0a4d0)"><path style=" stroke:none;fill-rule:nonzero;fill:#2a2e30;fill-opacity:1;" d="M 288.261719 276.476562 L 265.039062 276.476562 L 264.871094 276.335938 C 260.898438 272.894531 258.660156 267.910156 258.722656 262.652344 C 258.847656 252.925781 266.851562 245.042969 276.589844 245.09375 C 286.355469 245.140625 294.296875 253.117188 294.296875 262.882812 C 294.296875 267.96875 292.101562 272.996094 288.433594 276.328125 Z M 265.476562 275.304688 L 287.8125 275.304688 C 291.144531 272.191406 293.125 267.5625 293.125 262.878906 C 293.125 253.761719 285.707031 246.308594 276.585938 246.265625 C 267.496094 246.226562 260.007812 253.585938 259.898438 262.667969 C 259.835938 267.503906 261.867188 272.097656 265.476562 275.304688 Z M 264.4375 260.027344 C 265.34375 256.199219 268.046875 252.992188 271.683594 251.457031 C 271.980469 251.332031 272.121094 250.988281 271.996094 250.6875 C 271.867188 250.390625 271.527344 250.25 271.226562 250.375 C 267.25 252.058594 264.285156 255.566406 263.296875 259.757812 C 263.222656 260.074219 263.417969 260.390625 263.734375 260.464844 C 263.777344 260.476562 263.824219 260.480469 263.867188 260.480469 C 264.132812 260.480469 264.375 260.296875 264.4375 260.027344 Z M 266.234375 270.847656 C 266.5 270.660156 266.5625 270.296875 266.375 270.03125 C 265.617188 268.957031 265.039062 267.78125 264.652344 266.527344 C 264.554688 266.21875 264.230469 266.042969 263.921875 266.136719 C 263.609375 266.234375 263.4375 266.558594 263.53125 266.871094 C 263.953125 268.242188 264.585938 269.535156 265.417969 270.707031 C 265.535156 270.871094 265.714844 270.957031 265.898438 270.957031 C 266.015625 270.957031 266.132812 270.921875 266.234375 270.847656 Z M 290.722656 282.285156 L 262.296875 282.285156 C 260.371094 282.285156 258.800781 280.71875 258.800781 278.789062 C 258.800781 276.863281 260.367188 275.296875 262.296875 275.296875 L 290.722656 275.296875 C 292.644531 275.296875 294.214844 276.863281 294.214844 278.789062 C 294.214844 280.71875 292.648438 282.285156 290.722656 282.285156 Z M 262.296875 276.46875 C 261.015625 276.46875 259.972656 277.511719 259.972656 278.792969 C 259.972656 280.074219 261.015625 281.113281 262.296875 281.113281 L 290.722656 281.113281 C 292 281.113281 293.042969 280.074219 293.042969 278.792969 C 293.042969 277.511719 292 276.46875 290.722656 276.46875 Z M 286.082031 313.5625 L 266.9375 313.5625 C 266.777344 313.5625 266.621094 313.496094 266.511719 313.378906 C 266.402344 313.261719 266.34375 313.101562 266.351562 312.941406 L 268.25 281.660156 C 268.269531 281.351562 268.523438 281.109375 268.835938 281.109375 L 284.183594 281.109375 C 284.492188 281.109375 284.75 281.351562 284.769531 281.660156 L 286.667969 312.941406 C 286.675781 313.101562 286.621094 313.257812 286.507812 313.378906 C 286.398438 313.496094 286.238281 313.5625 286.082031 313.5625 Z M 267.558594 312.390625 L 285.457031 312.390625 L 283.628906 282.285156 L 269.386719 282.285156 Z M 254.664062 334.792969 C 253.539062 334.792969 252.480469 334.351562 251.6875 333.558594 C 250.890625 332.761719 250.453125 331.707031 250.453125 330.578125 C 250.453125 329.109375 251.234375 327.730469 252.492188 326.972656 L 262.738281 319.453125 L 262.738281 312.976562 C 262.738281 312.652344 263 312.386719 263.324219 312.386719 L 289.695312 312.386719 C 290.007812 312.386719 290.265625 312.632812 290.28125 312.945312 L 290.609375 319.183594 L 300.539062 326.957031 C 301.789062 327.714844 302.566406 329.089844 302.566406 330.558594 C 302.566406 332.882812 300.679688 334.769531 298.355469 334.773438 Z M 263.90625 313.5625 L 263.90625 319.753906 C 263.90625 319.941406 263.816406 320.117188 263.667969 320.226562 L 253.160156 327.9375 C 253.144531 327.949219 253.128906 327.960938 253.113281 327.96875 C 252.191406 328.515625 251.621094 329.515625 251.621094 330.582031 C 251.621094 331.394531 251.941406 332.15625 252.515625 332.730469 C 253.089844 333.304688 253.851562 333.617188 254.664062 333.617188 L 298.359375 333.601562 C 300.035156 333.601562 301.394531 332.238281 301.394531 330.5625 C 301.394531 329.492188 300.828125 328.492188 299.90625 327.945312 C 299.886719 327.933594 299.863281 327.917969 299.84375 327.902344 L 289.675781 319.941406 C 289.542969 319.835938 289.460938 319.683594 289.453125 319.511719 L 289.136719 313.5625 Z M 299.683594 340.074219 L 253.335938 340.074219 C 251.554688 340.074219 250.109375 338.625 250.109375 336.847656 C 250.109375 335.066406 251.554688 333.617188 253.335938 333.617188 L 299.683594 333.617188 C 301.464844 333.617188 302.910156 335.066406 302.910156 336.847656 C 302.910156 338.625 301.460938 340.074219 299.683594 340.074219 Z M 253.335938 334.792969 C 252.203125 334.792969 251.28125 335.714844 251.28125 336.847656 C 251.28125 337.980469 252.203125 338.898438 253.335938 338.898438 L 299.683594 338.898438 C 300.816406 338.898438 301.738281 337.980469 301.738281 336.847656 C 301.738281 335.714844 300.816406 334.792969 299.683594 334.792969 Z M 253.335938 334.792969 "/></g><path style=" stroke:none;fill-rule:nonzero;fill:#ffffff;fill-opacity:1;" d="M 202.792969 29.6875 L 174.726562 29.6875 L 174.726562 22.25 C 174.726562 14.503906 181.011719 8.21875 188.757812 8.21875 C 196.507812 8.21875 202.792969 14.503906 202.792969 22.25 Z M 216.914062 61.734375 C 217.046875 61.0625 217.128906 40.925781 217.128906 40.210938 C 217.128906 34.5 212.503906 29.875 206.792969 29.875 L 170.71875 29.875 C 165.007812 29.875 160.382812 34.5 160.382812 40.210938 C 160.382812 41.023438 160.480469 61.25 160.648438 62.007812 M 243.710938 42.792969 C 236.125 42.792969 229.972656 48.941406 229.972656 56.527344 C 229.972656 48.941406 223.824219 42.792969 216.234375 42.792969 C 208.648438 42.792969 202.496094 48.941406 202.496094 56.527344 C 202.496094 48.941406 196.347656 42.792969 188.757812 42.792969 C 181.171875 42.792969 175.023438 48.941406 175.023438 56.527344 C 175.023438 48.941406 168.871094 42.792969 161.285156 42.792969 C 153.695312 42.792969 147.546875 48.941406 147.546875 56.527344 C 147.546875 48.941406 141.394531 42.792969 133.808594 42.792969 L 153.875 125.210938 L 222.796875 125.210938 Z M 234.355469 278.582031 L 142.351562 278.582031 C 142.351562 293.375 134.636719 307.460938 124.292969 317.28125 L 112.679688 328.296875 C 109.144531 330.535156 106.976562 334.597656 106.976562 339 C 106.976562 345.871094 112.1875 351.441406 118.617188 351.433594 L 258.902344 351.371094 C 265.332031 351.371094 270.535156 345.800781 270.535156 338.9375 L 270.535156 338.925781 C 270.535156 334.535156 268.367188 330.464844 264.832031 328.222656 L 250.941406 315.308594 C 241.042969 306.105469 235.960938 293 235.265625 278.996094 Z M 276.800781 359.074219 C 276.800781 354.851562 273.382812 351.433594 269.160156 351.433594 L 108.351562 351.433594 C 104.128906 351.433594 100.707031 354.851562 100.707031 359.074219 C 100.707031 363.296875 104.128906 366.714844 108.351562 366.714844 L 269.160156 366.714844 C 273.382812 366.714844 276.800781 363.296875 276.800781 359.074219 Z M 226.609375 278.582031 L 219.101562 161.550781 L 158.410156 161.550781 L 150.902344 278.582031 Z M 243.84375 153.21875 C 243.84375 148.050781 239.660156 143.867188 234.488281 143.867188 L 143.019531 143.867188 C 137.851562 143.867188 133.664062 148.050781 133.664062 153.21875 C 133.664062 158.390625 137.851562 162.574219 143.019531 162.574219 L 234.488281 162.574219 C 239.660156 162.566406 243.84375 158.378906 243.84375 153.21875 Z M 237.710938 134.511719 C 237.710938 129.34375 233.527344 125.15625 228.355469 125.15625 L 149.152344 125.15625 C 143.984375 125.15625 139.796875 129.34375 139.796875 134.511719 C 139.796875 139.679688 143.984375 143.867188 149.152344 143.867188 L 228.347656 143.867188 C 233.527344 143.867188 237.710938 139.671875 237.710938 134.511719 Z M 237.710938 134.511719 "/><g clip-rule="nonzero" clip-path="url(#876d61471c)"><path style=" stroke:none;fill-rule:nonzero;fill:#2a2e30;fill-opacity:1;" d="M 164.558594 100.722656 C 164.882812 101.910156 164.175781 103.144531 162.980469 103.457031 C 162.785156 103.507812 162.585938 103.535156 162.398438 103.535156 C 161.417969 103.535156 160.515625 102.875 160.25 101.882812 L 153.875 78.148438 C 153.554688 76.960938 154.257812 75.730469 155.453125 75.417969 C 156.652344 75.097656 157.875 75.800781 158.1875 76.996094 Z M 279.03125 359.074219 C 279.03125 364.519531 274.605469 368.945312 269.160156 368.945312 L 108.351562 368.945312 C 102.90625 368.945312 98.476562 364.519531 98.476562 359.074219 C 98.476562 353.628906 102.90625 349.203125 108.351562 349.203125 L 108.664062 349.203125 C 106.144531 346.453125 104.753906 342.835938 104.753906 339 C 104.753906 333.945312 107.25 329.195312 111.304688 326.535156 L 122.765625 315.664062 C 133.636719 305.34375 140.128906 291.492188 140.128906 278.582031 C 140.128906 277.351562 141.128906 276.351562 142.359375 276.351562 L 148.824219 276.351562 L 155.972656 164.808594 L 143.019531 164.808594 C 136.628906 164.808594 131.433594 159.613281 131.433594 153.21875 C 131.433594 147.765625 135.21875 143.195312 140.296875 141.972656 C 138.59375 139.957031 137.566406 137.359375 137.566406 134.511719 C 137.566406 128.121094 142.761719 122.925781 149.152344 122.925781 L 151 122.925781 L 131.628906 43.316406 C 131.46875 42.648438 131.621094 41.953125 132.039062 41.40625 C 132.460938 40.871094 133.113281 40.550781 133.800781 40.550781 C 139.636719 40.550781 144.753906 43.703125 147.535156 48.386719 C 149.820312 44.550781 153.667969 41.746094 158.1875 40.855469 C 158.175781 40.640625 158.152344 40.425781 158.152344 40.210938 C 158.152344 33.285156 163.792969 27.644531 170.71875 27.644531 L 172.488281 27.644531 L 172.488281 22.25 C 172.496094 13.28125 179.789062 5.988281 188.757812 5.988281 C 197.730469 5.988281 205.023438 13.28125 205.023438 22.25 L 205.023438 27.644531 L 206.792969 27.644531 C 213.71875 27.644531 219.359375 33.285156 219.359375 40.210938 C 219.359375 40.425781 219.339844 40.640625 219.324219 40.855469 C 223.847656 41.746094 227.6875 44.550781 229.972656 48.386719 C 232.757812 43.703125 237.871094 40.550781 243.710938 40.550781 C 244.398438 40.550781 245.050781 40.871094 245.46875 41.417969 C 245.890625 41.960938 246.039062 42.667969 245.871094 43.335938 L 225.660156 122.925781 L 228.355469 122.925781 C 234.75 122.925781 239.945312 128.121094 239.945312 134.511719 C 239.945312 137.347656 238.910156 139.957031 237.210938 141.972656 C 242.292969 143.203125 246.078125 147.773438 246.078125 153.21875 C 246.078125 159.613281 240.882812 164.808594 234.488281 164.808594 L 221.546875 164.808594 L 228.695312 276.351562 L 234.355469 276.351562 C 234.667969 276.351562 234.980469 276.421875 235.277344 276.546875 L 236.1875 276.960938 C 236.953125 277.308594 237.453125 278.046875 237.5 278.886719 C 238.195312 292.992188 243.503906 305.34375 252.457031 313.675781 L 266.207031 326.457031 C 270.257812 329.117188 272.765625 333.875 272.765625 338.925781 C 272.765625 342.925781 271.238281 346.558594 268.785156 349.210938 L 269.167969 349.210938 C 274.605469 349.203125 279.03125 353.628906 279.03125 359.074219 Z M 176.957031 27.457031 L 200.558594 27.457031 L 200.558594 22.25 C 200.558594 15.742188 195.265625 10.449219 188.757812 10.449219 C 182.253906 10.449219 176.957031 15.742188 176.957031 22.25 Z M 162.613281 40.210938 C 162.613281 40.34375 162.632812 40.480469 162.640625 40.621094 C 167.90625 41.066406 172.449219 44.078125 175.023438 48.398438 C 177.808594 43.710938 182.921875 40.558594 188.757812 40.558594 C 194.597656 40.558594 199.710938 43.710938 202.496094 48.398438 C 205.066406 44.078125 209.613281 41.066406 214.878906 40.621094 C 214.886719 40.488281 214.894531 40.355469 214.894531 40.210938 C 214.894531 35.738281 211.261719 32.105469 206.792969 32.105469 L 170.71875 32.105469 C 166.257812 32.105469 162.613281 35.738281 162.613281 40.210938 Z M 155.597656 122.925781 L 221.054688 122.925781 L 240.746094 45.40625 C 235.835938 46.71875 232.203125 51.207031 232.203125 56.527344 C 232.203125 57.761719 231.203125 58.761719 229.972656 58.761719 C 228.742188 58.761719 227.742188 57.761719 227.742188 56.527344 C 227.742188 50.183594 222.582031 45.023438 216.234375 45.023438 C 209.886719 45.023438 204.730469 50.183594 204.730469 56.527344 C 204.730469 57.761719 203.730469 58.761719 202.496094 58.761719 C 201.265625 58.761719 200.265625 57.761719 200.265625 56.527344 C 200.265625 50.183594 195.105469 45.023438 188.757812 45.023438 C 182.414062 45.023438 177.253906 50.183594 177.253906 56.527344 C 177.253906 57.761719 176.253906 58.761719 175.023438 58.761719 C 173.789062 58.761719 172.789062 57.761719 172.789062 56.527344 C 172.789062 50.183594 167.628906 45.023438 161.285156 45.023438 C 154.9375 45.023438 149.777344 50.183594 149.777344 56.527344 C 149.777344 57.761719 148.777344 58.761719 147.546875 58.761719 C 146.3125 58.761719 145.3125 57.761719 145.3125 56.527344 C 145.3125 51.199219 141.671875 46.699219 136.734375 45.398438 Z M 142.03125 134.511719 C 142.03125 138.4375 145.226562 141.632812 149.152344 141.632812 L 228.355469 141.632812 C 232.285156 141.632812 235.480469 138.4375 235.480469 134.511719 C 235.480469 130.582031 232.285156 127.386719 228.355469 127.386719 L 223.261719 127.386719 C 223.109375 127.421875 222.949219 127.441406 222.789062 127.441406 L 153.867188 127.441406 C 153.707031 127.441406 153.542969 127.414062 153.394531 127.386719 L 149.160156 127.386719 C 145.226562 127.386719 142.03125 130.582031 142.03125 134.511719 Z M 143.019531 160.335938 L 234.488281 160.335938 C 238.417969 160.335938 241.613281 157.140625 241.613281 153.210938 C 241.613281 149.285156 238.417969 146.089844 234.488281 146.089844 L 143.019531 146.089844 C 139.09375 146.089844 135.898438 149.285156 135.898438 153.210938 C 135.898438 157.148438 139.09375 160.335938 143.019531 160.335938 Z M 153.285156 276.351562 L 224.222656 276.351562 L 217.074219 164.808594 L 160.4375 164.808594 Z M 118.617188 349.203125 L 258.902344 349.140625 C 264.089844 349.140625 268.304688 344.558594 268.304688 338.9375 C 268.304688 335.3125 266.519531 331.9375 263.636719 330.109375 C 263.519531 330.035156 263.410156 329.945312 263.3125 329.859375 L 249.425781 316.941406 C 239.980469 308.15625 234.238281 295.382812 233.152344 280.816406 L 144.527344 280.816406 C 143.859375 294.417969 137.128906 308.183594 125.828125 318.90625 L 114.214844 329.921875 C 114.109375 330.019531 113.992188 330.109375 113.875 330.1875 C 111 332.007812 109.207031 335.390625 109.207031 339 C 109.207031 341.757812 110.207031 344.335938 112.019531 346.273438 C 113.785156 348.15625 116.132812 349.203125 118.617188 349.203125 Z M 274.570312 359.074219 C 274.570312 356.09375 272.140625 353.664062 269.160156 353.664062 L 118.617188 353.664062 C 118.617188 353.664062 118.617188 353.664062 118.605469 353.664062 L 108.339844 353.664062 C 105.359375 353.664062 102.929688 356.09375 102.929688 359.074219 C 102.929688 362.054688 105.359375 364.484375 108.339844 364.484375 L 269.152344 364.484375 C 272.140625 364.484375 274.570312 362.054688 274.570312 359.074219 Z M 274.570312 359.074219 "/></g><path style=" stroke:none;fill-rule:nonzero;fill:#f46530;fill-opacity:1;" d="M 171.621094 267.203125 C 165.996094 262.328125 162.460938 255.09375 162.566406 247.042969 C 162.742188 232.734375 174.582031 221.105469 188.890625 221.171875 C 203.3125 221.234375 214.980469 232.945312 214.980469 247.382812 C 214.980469 255.078125 211.621094 262.410156 206.335938 267.207031 Z M 214.855469 271.617188 C 214.855469 269.171875 212.871094 267.1875 210.425781 267.1875 L 167.113281 267.1875 C 164.664062 267.1875 162.683594 269.171875 162.683594 271.617188 C 162.683594 274.066406 164.664062 276.050781 167.113281 276.050781 L 210.425781 276.050781 C 212.871094 276.050781 214.855469 274.066406 214.855469 271.617188 Z M 203.351562 323.710938 L 200.460938 276.050781 L 177.078125 276.050781 L 174.1875 323.710938 Z M 208.863281 323.710938 L 168.675781 323.710938 L 168.675781 334.035156 L 152.664062 345.78125 C 150.988281 346.777344 149.957031 348.582031 149.957031 350.53125 C 149.957031 353.582031 152.429688 356.054688 155.480469 356.050781 L 222.058594 356.023438 C 225.109375 356.023438 227.582031 353.550781 227.582031 350.503906 L 227.582031 350.5 C 227.582031 348.546875 226.550781 346.742188 224.875 345.75 L 209.386719 333.617188 Z M 228.101562 360.078125 C 228.101562 357.855469 226.300781 356.054688 224.078125 356.054688 L 153.460938 356.054688 C 151.238281 356.054688 149.4375 357.855469 149.4375 360.078125 C 149.4375 362.300781 151.238281 364.101562 153.460938 364.101562 L 224.082031 364.101562 C 226.300781 364.101562 228.101562 362.300781 228.101562 360.078125 Z M 228.101562 360.078125 "/><g clip-rule="nonzero" clip-path="url(#38308bb4ef)"><path style=" stroke:none;fill-rule:nonzero;fill:#2a2e30;fill-opacity:1;" d="M 206.679688 268.09375 L 171.289062 268.09375 L 171.039062 267.878906 C 164.984375 262.636719 161.570312 255.039062 161.671875 247.03125 C 161.855469 232.210938 174.054688 220.199219 188.894531 220.277344 C 203.773438 220.34375 215.871094 232.5 215.871094 247.382812 C 215.871094 255.128906 212.53125 262.789062 206.9375 267.867188 Z M 171.960938 266.308594 L 205.992188 266.308594 C 211.070312 261.5625 214.085938 254.511719 214.085938 247.378906 C 214.085938 233.480469 202.785156 222.125 188.890625 222.0625 C 175.039062 222 163.628906 233.210938 163.457031 247.050781 C 163.363281 254.425781 166.460938 261.421875 171.960938 266.308594 Z M 170.378906 243.03125 C 171.753906 237.195312 175.878906 232.3125 181.417969 229.972656 C 181.871094 229.777344 182.085938 229.257812 181.890625 228.800781 C 181.699219 228.347656 181.179688 228.132812 180.71875 228.324219 C 174.660156 230.886719 170.144531 236.230469 168.640625 242.621094 C 168.523438 243.101562 168.824219 243.582031 169.304688 243.695312 C 169.371094 243.714844 169.441406 243.722656 169.507812 243.722656 C 169.914062 243.722656 170.28125 243.441406 170.378906 243.03125 Z M 173.117188 259.519531 C 173.519531 259.234375 173.617188 258.675781 173.332031 258.277344 C 172.171875 256.640625 171.289062 254.84375 170.703125 252.933594 C 170.558594 252.460938 170.0625 252.199219 169.589844 252.339844 C 169.117188 252.488281 168.855469 252.984375 168.996094 253.457031 C 169.640625 255.546875 170.605469 257.515625 171.871094 259.304688 C 172.046875 259.550781 172.324219 259.683594 172.601562 259.683594 C 172.78125 259.683594 172.960938 259.628906 173.117188 259.519531 Z M 210.425781 276.941406 L 167.113281 276.941406 C 164.179688 276.941406 161.789062 274.554688 161.789062 271.617188 C 161.789062 268.683594 164.175781 266.292969 167.113281 266.292969 L 210.425781 266.292969 C 213.359375 266.292969 215.75 268.679688 215.75 271.617188 C 215.75 274.554688 213.363281 276.941406 210.425781 276.941406 Z M 167.113281 268.085938 C 165.164062 268.085938 163.574219 269.671875 163.574219 271.621094 C 163.574219 273.574219 165.164062 275.160156 167.113281 275.160156 L 210.425781 275.160156 C 212.375 275.160156 213.960938 273.574219 213.960938 271.621094 C 213.960938 269.671875 212.375 268.085938 210.425781 268.085938 Z M 203.355469 324.601562 L 174.1875 324.601562 C 173.941406 324.601562 173.707031 324.503906 173.539062 324.320312 C 173.371094 324.140625 173.28125 323.898438 173.296875 323.652344 L 176.1875 275.992188 C 176.214844 275.519531 176.605469 275.152344 177.078125 275.152344 L 200.460938 275.152344 C 200.933594 275.152344 201.328125 275.519531 201.355469 275.992188 L 204.246094 323.652344 C 204.261719 323.898438 204.175781 324.136719 204.007812 324.320312 C 203.839844 324.503906 203.597656 324.601562 203.355469 324.601562 Z M 175.136719 322.816406 L 202.402344 322.816406 L 199.621094 276.941406 L 177.917969 276.941406 Z M 155.480469 356.949219 C 153.769531 356.949219 152.160156 356.28125 150.949219 355.070312 C 149.738281 353.859375 149.066406 352.246094 149.066406 350.53125 C 149.066406 348.289062 150.257812 346.1875 152.171875 345.035156 L 167.785156 333.578125 L 167.785156 323.707031 C 167.785156 323.214844 168.183594 322.8125 168.679688 322.8125 L 208.863281 322.8125 C 209.339844 322.8125 209.730469 323.183594 209.757812 323.660156 L 210.257812 333.164062 L 225.382812 345.011719 C 227.292969 346.167969 228.472656 348.261719 228.472656 350.5 C 228.472656 354.039062 225.597656 356.917969 222.058594 356.921875 Z M 169.566406 324.601562 L 169.566406 334.035156 C 169.566406 334.324219 169.433594 334.585938 169.203125 334.757812 L 153.191406 346.507812 C 153.167969 346.523438 153.144531 346.539062 153.121094 346.554688 C 151.71875 347.382812 150.851562 348.910156 150.851562 350.535156 C 150.851562 351.769531 151.332031 352.933594 152.210938 353.808594 C 153.085938 354.683594 154.246094 355.160156 155.480469 355.160156 C 155.480469 355.160156 155.480469 355.160156 155.484375 355.160156 L 222.0625 355.132812 C 224.613281 355.132812 226.691406 353.058594 226.691406 350.507812 C 226.691406 348.871094 225.824219 347.351562 224.421875 346.519531 C 224.390625 346.5 224.355469 346.476562 224.324219 346.453125 L 208.835938 334.324219 C 208.632812 334.160156 208.507812 333.925781 208.492188 333.664062 L 208.011719 324.601562 Z M 224.078125 364.996094 L 153.460938 364.996094 C 150.746094 364.996094 148.542969 362.789062 148.542969 360.078125 C 148.542969 357.367188 150.746094 355.160156 153.460938 355.160156 L 224.082031 355.160156 C 226.792969 355.160156 229 357.367188 229 360.078125 C 229 362.789062 226.789062 364.996094 224.078125 364.996094 Z M 153.460938 356.949219 C 151.734375 356.949219 150.328125 358.351562 150.328125 360.078125 C 150.328125 361.804688 151.734375 363.207031 153.460938 363.207031 L 224.082031 363.207031 C 225.808594 363.207031 227.210938 361.804688 227.210938 360.078125 C 227.210938 358.351562 225.808594 356.949219 224.082031 356.949219 Z M 153.460938 356.949219 "/></g><g clip-rule="nonzero" clip-path="url(#6bcbae51f3)"><path style=" stroke:none;fill-rule:evenodd;fill:#f46530;fill-opacity:1;" d="M 208.746094 166.957031 L 214.652344 166.957031 L 214.652344 172.863281 L 208.746094 172.863281 Z M 208.746094 166.957031 "/></g><path style=" stroke:none;fill-rule:evenodd;fill:#f46530;fill-opacity:1;" d="M 208.792969 178.769531 L 214.703125 178.769531 L 214.703125 184.679688 L 208.792969 184.679688 Z M 208.792969 178.769531 "/><path style=" stroke:none;fill-rule:evenodd;fill:#f46530;fill-opacity:1;" d="M 202.839844 172.863281 L 208.746094 172.863281 L 208.746094 178.769531 L 202.839844 178.769531 Z M 202.839844 172.863281 "/><path style=" stroke:none;fill-rule:evenodd;fill:#f46530;fill-opacity:1;" d="M 191.023438 172.863281 L 196.929688 172.863281 L 196.929688 178.769531 L 191.023438 178.769531 Z M 191.023438 172.863281 "/><path style=" stroke:none;fill-rule:evenodd;fill:#f46530;fill-opacity:1;" d="M 191.023438 196.492188 L 196.929688 196.492188 L 196.929688 202.402344 L 191.023438 202.402344 Z M 191.023438 196.492188 "/><path style=" stroke:none;fill-rule:evenodd;fill:#f46530;fill-opacity:1;" d="M 179.207031 172.863281 L 185.117188 172.863281 L 185.117188 178.769531 L 179.207031 178.769531 Z M 179.207031 172.863281 "/><path style=" stroke:none;fill-rule:evenodd;fill:#f46530;fill-opacity:1;" d="M 179.207031 196.492188 L 185.117188 196.492188 L 185.117188 202.402344 L 179.207031 202.402344 Z M 179.207031 196.492188 "/><path style=" stroke:none;fill-rule:evenodd;fill:#f46530;fill-opacity:1;" d="M 179.484375 208.308594 L 185.390625 208.308594 L 185.390625 214.21875 L 179.484375 214.21875 Z M 179.484375 208.308594 "/><path style=" stroke:none;fill-rule:evenodd;fill:#f46530;fill-opacity:1;" d="M 167.390625 196.492188 L 173.300781 196.492188 L 173.300781 202.402344 L 167.390625 202.402344 Z M 167.390625 196.492188 "/><path style=" stroke:none;fill-rule:evenodd;fill:#f46530;fill-opacity:1;" d="M 167.667969 208.308594 L 173.578125 208.308594 L 173.578125 214.21875 L 167.667969 214.21875 Z M 167.667969 208.308594 "/><path style=" stroke:none;fill-rule:evenodd;fill:#f46530;fill-opacity:1;" d="M 167.390625 184.679688 L 173.300781 184.679688 L 173.300781 190.585938 L 167.390625 190.585938 Z M 167.390625 184.679688 "/><path style=" stroke:none;fill-rule:evenodd;fill:#f46530;fill-opacity:1;" d="M 179.207031 184.679688 L 185.117188 184.679688 L 185.117188 190.585938 L 179.207031 190.585938 Z M 179.207031 184.679688 "/><path style=" stroke:none;fill-rule:evenodd;fill:#f46530;fill-opacity:1;" d="M 191.023438 184.679688 L 196.929688 184.679688 L 196.929688 190.585938 L 191.023438 190.585938 Z M 191.023438 184.679688 "/><path style=" stroke:none;fill-rule:evenodd;fill:#f46530;fill-opacity:1;" d="M 202.886719 184.679688 L 208.792969 184.679688 L 208.792969 190.585938 L 202.886719 190.585938 Z M 202.886719 184.679688 "/><path style=" stroke:none;fill-rule:evenodd;fill:#f46530;fill-opacity:1;" d="M 173.300781 178.769531 L 179.207031 178.769531 L 179.207031 184.679688 L 173.300781 184.679688 Z M 173.300781 178.769531 "/><path style=" stroke:none;fill-rule:evenodd;fill:#f46530;fill-opacity:1;" d="M 185.113281 178.769531 L 191.023438 178.769531 L 191.023438 184.679688 L 185.113281 184.679688 Z M 185.113281 178.769531 "/><path style=" stroke:none;fill-rule:evenodd;fill:#f46530;fill-opacity:1;" d="M 196.929688 178.769531 L 202.839844 178.769531 L 202.839844 184.679688 L 196.929688 184.679688 Z M 196.929688 178.769531 "/><g clip-rule="nonzero" clip-path="url(#d29dcba57b)"><path style=" stroke:none;fill-rule:evenodd;fill:#f46530;fill-opacity:1;" d="M 196.929688 166.957031 L 202.839844 166.957031 L 202.839844 172.863281 L 196.929688 172.863281 Z M 196.929688 166.957031 "/></g><path style=" stroke:none;fill-rule:evenodd;fill:#f46530;fill-opacity:1;" d="M 196.929688 190.585938 L 202.839844 190.585938 L 202.839844 196.492188 L 196.929688 196.492188 Z M 196.929688 190.585938 "/><g clip-rule="nonzero" clip-path="url(#de167772c3)"><path style=" stroke:none;fill-rule:evenodd;fill:#f46530;fill-opacity:1;" d="M 185.113281 166.957031 L 191.023438 166.957031 L 191.023438 172.863281 L 185.113281 172.863281 Z M 185.113281 166.957031 "/></g><path style=" stroke:none;fill-rule:evenodd;fill:#f46530;fill-opacity:1;" d="M 185.113281 190.585938 L 191.023438 190.585938 L 191.023438 196.492188 L 185.113281 196.492188 Z M 185.113281 190.585938 "/><path style=" stroke:none;fill-rule:evenodd;fill:#f46530;fill-opacity:1;" d="M 185.390625 202.402344 L 191.300781 202.402344 L 191.300781 208.308594 L 185.390625 208.308594 Z M 185.390625 202.402344 "/><path style=" stroke:none;fill-rule:evenodd;fill:#f46530;fill-opacity:1;" d="M 173.300781 190.585938 L 179.207031 190.585938 L 179.207031 196.492188 L 173.300781 196.492188 Z M 173.300781 190.585938 "/><path style=" stroke:none;fill-rule:evenodd;fill:#f46530;fill-opacity:1;" d="M 173.578125 202.402344 L 179.484375 202.402344 L 179.484375 208.308594 L 173.578125 208.308594 Z M 173.578125 202.402344 "/><g clip-rule="nonzero" clip-path="url(#2ff580449c)"><path style=" stroke:none;fill-rule:evenodd;fill:#f46530;fill-opacity:1;" d="M 161.484375 190.585938 L 167.390625 190.585938 L 167.390625 196.492188 L 161.484375 196.492188 Z M 161.484375 190.585938 "/></g><g clip-rule="nonzero" clip-path="url(#ee5523d3c1)"><path style=" stroke:none;fill-rule:evenodd;fill:#f46530;fill-opacity:1;" d="M 161.761719 202.402344 L 167.667969 202.402344 L 167.667969 208.308594 L 161.761719 208.308594 Z M 161.761719 202.402344 "/></g><g clip-rule="nonzero" clip-path="url(#97b8244248)"><path style=" stroke:none;fill-rule:evenodd;fill:#f46530;fill-opacity:1;" d="M 161.761719 214.21875 L 167.667969 214.21875 L 167.667969 220.125 L 161.761719 220.125 Z M 161.761719 214.21875 "/></g><g clip-rule="nonzero" clip-path="url(#0f0a1d1ca2)"><path style=" stroke:none;fill-rule:evenodd;fill:#f46530;fill-opacity:1;" d="M 173.578125 214.21875 L 179.484375 214.21875 L 179.484375 220.125 L 173.578125 220.125 Z M 173.578125 214.21875 "/></g></g></svg>